<?xml version="1.0" encoding="UTF-8" standalone="no"?>
<!-- Created with Inkscape (http://www.inkscape.org/) -->

<svg
   width="1732.9102"
   height="1180.7635"
   viewBox="0 0 458.49914 312.41036"
   version="1.1"
   id="svg1"
   xml:space="preserve"
   inkscape:version="1.3 (0e150ed6c4, 2023-07-21)"
   sodipodi:docname="Logo JA.svg"
   inkscape:export-filename="Logo JA.svg"
   inkscape:export-xdpi="96"
   inkscape:export-ydpi="96"
   xmlns:inkscape="http://www.inkscape.org/namespaces/inkscape"
   xmlns:sodipodi="http://sodipodi.sourceforge.net/DTD/sodipodi-0.dtd"
   xmlns="http://www.w3.org/2000/svg"
   xmlns:svg="http://www.w3.org/2000/svg"><sodipodi:namedview
     id="namedview1"
     pagecolor="#505050"
     bordercolor="#ffffff"
     borderopacity="1"
     inkscape:showpageshadow="0"
     inkscape:pageopacity="0"
     inkscape:pagecheckerboard="1"
     inkscape:deskcolor="#505050"
     inkscape:document-units="mm"
     inkscape:zoom="0.099989318"
     inkscape:cx="3620.3867"
     inkscape:cy="250.02671"
     inkscape:window-width="1366"
     inkscape:window-height="706"
     inkscape:window-x="-8"
     inkscape:window-y="-8"
     inkscape:window-maximized="1"
     inkscape:current-layer="svg1"
     showborder="true" /><defs
     id="defs1" /><style
     type="text/css"
     id="style1">&#10;	.st0{fill:#FFD200;}&#10;	.st1{fill-rule:evenodd;clip-rule:evenodd;fill:#13B5EA;}&#10;	.st2{fill-rule:evenodd;clip-rule:evenodd;}&#10;</style><style
     type="text/css"
     id="style1-6">&#10;	.st0{fill:#FFD200;}&#10;	.st1{fill-rule:evenodd;clip-rule:evenodd;fill:#13B5EA;}&#10;	.st2{fill-rule:evenodd;clip-rule:evenodd;}&#10;</style><style
     type="text/css"
     id="style1-9">&#10;	.st0{fill:#FFD200;}&#10;	.st1{fill-rule:evenodd;clip-rule:evenodd;fill:#13B5EA;}&#10;	.st2{fill-rule:evenodd;clip-rule:evenodd;}&#10;</style><style
     type="text/css"
     id="style1-4">&#10;	.st0{fill:#FFD200;}&#10;	.st1{fill-rule:evenodd;clip-rule:evenodd;fill:#13B5EA;}&#10;	.st2{fill-rule:evenodd;clip-rule:evenodd;}&#10;</style><style
     type="text/css"
     id="style1-9-0">&#10;	.st0{fill:#FFD200;}&#10;	.st1{fill-rule:evenodd;clip-rule:evenodd;fill:#13B5EA;}&#10;	.st2{fill-rule:evenodd;clip-rule:evenodd;}&#10;</style><style
     type="text/css"
     id="style1-7">&#10;	.st0{fill:#FFD200;}&#10;	.st1{fill-rule:evenodd;clip-rule:evenodd;fill:#13B5EA;}&#10;	.st2{fill-rule:evenodd;clip-rule:evenodd;}&#10;</style><style
     type="text/css"
     id="style1-71">&#10;	.st0{fill:#FFD200;}&#10;	.st1{fill-rule:evenodd;clip-rule:evenodd;fill:#13B5EA;}&#10;	.st2{fill-rule:evenodd;clip-rule:evenodd;}&#10;</style><style
     type="text/css"
     id="style1-1">&#10;	.st0{fill:#FFD200;}&#10;	.st1{fill-rule:evenodd;clip-rule:evenodd;fill:#13B5EA;}&#10;	.st2{fill-rule:evenodd;clip-rule:evenodd;}&#10;</style><g
     id="g38"
     inkscape:label="Logo JA"
     inkscape:export-filename="..\..\..\..\Logo JA.png"
     inkscape:export-xdpi="96"
     inkscape:export-ydpi="96"
     transform="translate(19.43685,-8.3821513)"
     style="fill:#000000"><path
       id="path4"
       style="display:inline;vector-effect:non-scaling-stroke;fill:#000000;stroke-width:0.18773;stroke-miterlimit:10;-inkscape-stroke:hairline;paint-order:markers stroke fill"
       inkscape:highlight-color="#fecc0d"
       inkscape:label="Logo JA"
       d="m 184.3657,8.3829508 c -0.98566,-0.00541 -1.90638,0.017646 -2.72231,0.038241 -4.13178,0.1042877 -8.53269,0.3976564 -13.15269,0.8815999 -4.61998,0.4839438 -9.45917,1.1585473 -14.46785,2.0251993 -5.00867,0.866657 -10.187,1.925167 -15.48484,3.177584 -5.29784,1.252404 -10.71567,2.698562 -16.20314,4.339786 -5.48748,1.641237 -11.04517,3.477671 -16.62276,5.510775 -5.57759,2.033094 -11.175514,4.263051 -16.743684,6.691065 -2.78408,1.214004 -5.56045,2.477676 -8.32353,3.790983 -1.5537,0.738496 -3.0908,1.52953 -4.63486,2.299601 8.50319,1.462204 16.51838,2.968883 25.481144,3.730005 5.08299,0.947407 9.28454,0.838243 13.32787,-2.064991 24.43405,-17.544538 47.69182,-25.0221 73.42394,-30.1738679 -0.25363,-0.028491 -0.51203,-0.092006 -0.76326,-0.1136882 -1.07769,-0.09301 -2.12835,-0.1268826 -3.11403,-0.1322921 z m 50.89457,0 c -0.98555,0.00541 -2.03633,0.039282 -3.11402,0.1322917 -1.07769,0.09301 -2.18209,0.2450252 -3.27422,0.4873088 -1.09213,0.2422844 -2.1724,0.5746427 -3.20135,1.0278447 -0.51447,0.226599 -1.01608,0.483656 -1.50017,0.774629 -0.4841,0.290975 -0.95068,0.615867 -1.39475,0.978752 -0.44407,0.362878 -0.86562,0.763624 -1.25987,1.206128 -0.39425,0.442502 -0.7612,0.926775 -1.09605,1.456758 -0.33486,0.52999 -0.63762,1.105546 -0.90331,1.730644 -0.2657,0.6251 -0.49477,1.299875 -0.68161,2.027783 -0.18683,0.72791 -0.33169,1.509231 -0.42995,2.347661 -0.0983,0.838438 -0.14986,1.734133 -0.14986,2.690791 v 83.131878 c 5.67047,-0.18025 14.89065,-0.51877 28.42927,-1.10226 16.85473,-0.7264 33.6897,-1.50865 35.27537,-1.70842 0.19821,-0.025 0.39211,-0.0121 0.58084,0.0341 0.18873,0.0462 0.37229,0.12577 0.55036,0.23513 0.35613,0.21873 0.68996,0.55529 0.99632,0.97772 0.30636,0.42243 0.58541,0.93071 0.8325,1.4919 0.24709,0.56119 0.46246,1.17576 0.64079,1.81074 0.17832,0.63498 0.3196,1.29049 0.41961,1.93425 0.1,0.64376 0.15873,1.27576 0.17105,1.86345 0.0123,0.5877 -0.0215,1.13122 -0.10645,1.59784 -0.0849,0.46662 -0.22071,0.8563 -0.41238,1.13688 -0.20426,0.29901 -0.44867,0.58106 -0.7369,0.84284 -0.28822,0.26179 -0.62026,0.50332 -0.99943,0.72037 -0.37918,0.21706 -0.80571,0.40988 -1.28312,0.57464 -0.4774,0.16476 -1.00568,0.30146 -1.58854,0.40618 -1.28139,0.23023 -3.30116,0.44787 -5.85855,0.65267 -2.55738,0.20481 -5.65233,0.39692 -9.0842,0.5762 -6.86374,0.35852 -15.07503,0.66566 -23.02754,0.92139 -12.41812,0.39932 -19.75763,0.56528 -24.799,0.71106 v 188.99622 c 0,0.67491 0.0507,1.31457 0.14831,1.92081 0.0976,0.60625 0.24236,1.1788 0.43098,1.71928 0.18861,0.54048 0.42095,1.04889 0.69402,1.52652 0.27308,0.47763 0.58695,0.92435 0.93792,1.34204 0.35097,0.41769 0.73894,0.80608 1.16117,1.16685 0.42223,0.36077 0.87873,0.69393 1.36581,1.00046 0.48707,0.30652 1.00493,0.5865 1.55029,0.8418 0.54536,0.25532 1.11822,0.48598 1.71515,0.69299 1.19385,0.414 2.48421,0.73381 3.84524,0.97203 1.36105,0.23822 2.79274,0.39437 4.26847,0.48007 1.47573,0.0857 2.99567,0.10138 4.53358,0.0579 1.5379,-0.0435 3.09349,-0.14607 4.64106,-0.29559 3.17608,-0.30685 6.34448,-0.66393 9.50277,-1.07022 3.1583,-0.40629 6.30653,-0.8618 9.44181,-1.36581 3.13527,-0.504 6.25771,-1.05665 9.3648,-1.65674 3.10709,-0.6001 6.19884,-1.24765 9.2723,-1.942 3.07344,-0.69436 6.12866,-1.43564 9.16327,-2.22261 3.0346,-0.78695 6.04866,-1.61963 9.03924,-2.49752 2.99058,-0.87789 5.95795,-1.80074 8.8992,-2.76779 2.94125,-0.96704 5.85642,-1.97827 8.74313,-3.03289 2.88669,-1.05461 5.74469,-2.1524 8.57157,-3.29282 2.82687,-1.14042 5.62271,-2.32358 8.3845,-3.5481 2.76178,-1.22452 5.48997,-2.4908 8.18142,-3.7977 2.69145,-1.30693 5.34644,-2.65453 7.9623,-4.04213 2.61584,-1.38762 5.1927,-2.8153 7.72769,-4.28191 2.535,-1.46662 5.02818,-2.9721 7.47707,-4.51601 2.44888,-1.5439 4.85341,-3.12596 7.21093,-4.74544 2.35752,-1.6195 4.66787,-3.27634 6.92877,-4.96973 2.26089,-1.69336 4.4721,-3.42326 6.63112,-5.18883 2.15901,-1.76557 4.26608,-3.56725 6.31796,-5.40328 2.05188,-1.83605 4.04879,-3.70672 5.98827,-5.61155 1.93949,-1.90483 3.82123,-3.84378 5.64306,-5.81566 1.82183,-1.97191 3.58396,-3.97683 5.28289,-6.01411 1.69892,-2.03727 3.33489,-4.10694 4.90564,-6.20789 1.57077,-2.10092 3.07609,-4.23307 4.51342,-6.39599 1.43735,-2.16291 2.80652,-4.35626 4.10517,-6.57944 1.29866,-2.22318 2.5267,-4.4765 3.68143,-6.75825 1.15473,-2.28172 2.23613,-4.59224 3.24167,-6.93084 1.00554,-2.3386 1.93531,-4.70503 2.78639,-7.09879 0.85109,-2.39376 1.62371,-4.81488 2.3151,-7.26209 0.69138,-2.44721 1.30138,-4.92074 1.8278,-7.4197 0.52643,-2.49896 0.9693,-5.02314 1.3255,-7.57215 0.35621,-2.54901 0.62594,-5.12259 0.80667,-7.71994 0.18074,-2.59735 0.27233,-5.21857 0.27233,-7.86257 0,-1.6363 -0.0331,-3.25935 -0.0982,-4.86895 -0.0651,-1.60962 -0.16224,-3.20584 -0.29094,-4.78886 -0.12869,-1.58302 -0.28889,-3.15277 -0.47956,-4.70927 -0.19067,-1.5565 -0.41184,-3.09977 -0.66301,-4.62969 -0.50235,-3.05988 -1.12394,-6.06657 -1.8588,-9.02064 -0.73486,-2.95409 -1.5829,-5.8557 -2.53783,-8.70438 -0.95494,-2.84868 -2.01709,-5.64447 -3.17965,-8.38812 -1.16257,-2.74365 -2.426,-5.43494 -3.78375,-8.07392 -1.35775,-2.63901 -2.80962,-5.22603 -4.35012,-7.76077 -1.54051,-2.53474 -3.1695,-5.01728 -4.88032,-7.448126 -1.7108,-2.430854 -3.5036,-4.809686 -5.37228,-7.137032 -1.86868,-2.327344 -3.81294,-4.603264 -5.82704,-6.82749 -2.01411,-2.224226 -4.09801,-4.396979 -6.24509,-6.518465 -2.14709,-2.121486 -4.35782,-4.191866 -6.62544,-6.21099 -2.26764,-2.019136 -4.59233,-3.986877 -6.96805,-5.904033 -2.37574,-1.917166 -4.80258,-3.783575 -7.27397,-5.599141 -2.4714,-1.815558 -4.98757,-3.58042 -7.54218,-5.294768 -2.55462,-1.714356 -5.14778,-3.378417 -7.77317,-4.991943 -2.6254,-1.613516 -5.2827,-3.17657 -7.96644,-4.689636 -2.68373,-1.513078 -5.39389,-2.975872 -8.12353,-4.38888 -2.72962,-1.413006 -5.47879,-2.776346 -8.24188,-4.089672 -2.76309,-1.313318 -5.53993,-2.576967 -8.32404,-3.790983 -2.7841,-1.214018 -5.5758,-2.378725 -8.36848,-3.493844 -2.79268,-1.115119 -5.58638,-2.180668 -8.3752,-3.197221 -2.78881,-1.016558 -5.57269,-1.983752 -8.34522,-2.902148 -2.77254,-0.918397 -5.53378,-1.788002 -8.27753,-2.608627 -2.74376,-0.820618 -5.47003,-1.592384 -8.17263,-2.315621 -2.7026,-0.723235 -5.38157,-1.397957 -8.03052,-2.024165 -2.64893,-0.626215 -5.26781,-1.203718 -7.85068,-1.733228 -2.58288,-0.52951 -5.12981,-1.011028 -7.63416,-1.444356 -2.50436,-0.43333 -4.96655,-0.818528 -7.37991,-1.156002 -2.41337,-0.3374734 -4.77794,-0.6272241 -7.08794,-0.8691977 -2.31001,-0.2419729 -4.56509,-0.43604 -6.75928,-0.5829101 -2.19419,-0.1468703 -4.32752,-0.2465453 -6.39341,-0.2986898 -0.81595,-0.020595 -1.73626,-0.043648 -2.7218,-0.038241 z m -44.58229,2.7507362 c -17.74371,2.413286 -44.06955,8.924352 -70.9259,28.256674 -3.28429,2.364174 -5.09637,3.450096 3.18223,4.290694 7.48399,0.868438 14.98725,1.479779 22.49837,2.041219 9.00709,0.673268 10.8142,-2.19459 11.69593,-3.076298 0.88172,-0.881728 19.9558,-24.632163 33.54937,-31.512289 z m 6.26163,0.751892 c -18.68435,8.474886 -28.46165,20.507957 -34.27129,28.397233 -4.10515,5.574685 -1.06074,6.364099 5.09478,6.693649 11.6508,0.623759 18.79978,0.903167 33.60725,1.00769 V 23.243542 c 0,-0.956647 -0.0516,-1.852364 -0.14986,-2.690791 -0.0983,-0.83843 -0.24312,-1.619751 -0.42995,-2.347661 -0.18684,-0.727907 -0.41539,-1.402693 -0.68109,-2.027783 -0.26569,-0.625097 -0.56846,-1.200654 -0.90331,-1.730644 -0.64413,-1.019468 -1.41895,-1.851878 -2.26653,-2.561084 z M 72.143606,39.0679 c -2.64134,1.371022 -5.26596,2.784007 -7.86412,4.248836 -2.6837,1.513054 -5.34156,3.076132 -7.96695,4.689636 -2.625369,1.613514 -5.218572,3.277599 -7.77317,4.991943 -2.554598,1.714337 -5.070796,3.479221 -7.542175,5.294768 -2.471375,1.815554 -4.898259,3.681997 -7.273975,5.599141 -2.375716,1.917134 -4.700436,3.884909 -6.96805,5.904033 -2.267614,2.019111 -4.478363,4.089516 -6.625435,6.21099 -2.147072,2.121474 -4.230492,4.294261 -6.24458,6.518465 -2.014088,2.224214 -3.9588891,4.500169 -5.8275511,6.82749 -0.785155,0.977872 -1.499314,2.002687 -2.257227,2.998784 19.5133681,6.032862 43.5159401,11.775524 49.2745121,13.003344 6.486281,1.38293 8.895641,-2.63416 11.061861,-6.386177 2.16621,-3.751998 17.28967,-31.408967 32.86931,-46.735132 1.806934,-1.839864 11.162664,-7.159574 -0.18139,-8.735901 -9.02336,-1.228939 -17.83536,-2.748335 -26.68106,-4.43022 z m 45.256164,6.786149 c -0.52873,-0.01534 -1.03263,-0.01412 -1.51361,0.0026 -6.73369,0.23402 -8.93649,3.445006 -10.84636,5.237924 -16.007074,14.52233 -27.456794,31.515365 -36.179714,51.144687 -1.51227,3.40311 1.19997,5.88889 7.08794,6.74119 l 38.668444,5.59707 c 13.71908,1.98588 14.75778,4.30679 18.20819,-11.72073 3.43634,-15.962192 9.61985,-32.153627 17.2806,-48.467845 0.90392,-1.924976 2.44574,-5.522879 -3.44836,-6.035807 l -27.59522,-2.401404 c -0.57962,-0.05044 -1.13319,-0.08233 -1.66191,-0.09767 z m 45.55536,3.841109 c -2.99207,-0.0852 -7.76063,1.042868 -9.58547,4.601786 -8.68758,16.943099 -9.06882,18.933256 -15.13551,39.364006 -2.11966,7.13843 -2.68322,8.03004 6.35724,8.40207 13.24931,0.54524 7.64803,0.22479 25.0765,0.70487 2.88095,0.0794 25.05647,1.54356 28.1802,1.5937 h 3.52226 V 50.94366 C 185.50834,50.698377 172.47957,49.966331 162.95513,49.695158 Z M 3.7534699,95.0712 c -0.346589,0.479207 -0.728001,0.935721 -1.068152,1.419034 -1.71079897,2.430824 -3.33931297,4.913406 -4.879806,7.448126 -1.540489,2.53472 -2.992896,5.12178 -4.350639,7.76077 -1.357743,2.63895 -2.621192,5.33029 -3.7837479,8.07392 -1.162555,2.74363 -2.224208,5.53946 -3.179134,8.38812 -0.954926,2.84866 -1.802972,5.75031 -2.53783,8.70438 -0.734854,2.95404 -1.356971,5.96078 -1.859318,9.02064 -0.502343,3.05983 -0.885174,6.17293 -1.142566,9.33896 -0.257392,3.16603 -0.389123,6.38522 -0.389123,9.65781 0,2.64398 0.09161,5.26523 0.272335,7.86257 0.180728,2.59734 0.450465,5.17095 0.806669,7.71994 0.356202,2.549 0.799082,5.0732 1.3255,7.57215 0.526421,2.49895 1.136415,4.97251 1.827796,7.4197 0.691378,2.4472 1.464022,4.86835 2.315104,7.26209 0.851082,2.39374 1.780864,4.7602 2.786393,7.09879 1.0055289,2.33859 2.0869429,4.64915 3.2416629,6.93084 1.154717,2.28173 2.382776,4.53508 3.681429,6.75825 1.298651,2.22317 2.66784703,4.41654 4.10517503,6.57944 1.07103897,1.61171 2.21761497,3.18875 3.36310297,4.76612 15.2217091,-3.81266 47.5390731,-12.58693 49.6646681,-13.36714 2.664097,-0.97791 5.902927,-2.88383 3.779617,-9.43612 -2.123297,-6.55227 -6.828046,-26.98931 -6.828009,-47.0209 -3.7e-5,-20.03159 4.704712,-40.46914 6.828009,-47.02142 2.12331,-6.5523 -1.11552,-8.45822 -3.779617,-9.43612 C 51.801205,107.7813 18.721082,98.802769 3.7534699,95.0712 Z m 65.5949661,16.95297 c -4.56435,0.23891 -6.51834,2.29159 -7.93182,6.86056 -1.84618,5.96764 -6.913824,27.56798 -6.913789,46.14344 -3.5e-5,18.57546 5.067609,40.17631 6.913789,46.14395 1.84618,5.96764 4.61389,7.64219 12.91652,6.58978 8.30266,-1.05239 34.986114,-5.04982 42.688874,-6.34225 9.31469,-1.56289 12.21264,-1.89948 11.13369,-10.96108 -1.07895,-9.06163 -2.51047,-22.36486 -2.11357,-35.4304 -0.3969,-13.06553 1.03462,-26.36827 2.11357,-35.42988 1.07895,-9.06161 -1.819,-9.39922 -11.13369,-10.96212 -7.70276,-1.29243 -34.386214,-5.28985 -42.688874,-6.34225 -1.03781,-0.13155 -1.98901,-0.22029 -2.86287,-0.26355 -0.76464,-0.0378 -1.46978,-0.0405 -2.12183,-0.006 z m 70.615324,8.99997 c -3.84139,0.13026 -7.25826,1.34598 -8.27184,5.5056 -0.83039,6.2784 -2.37922,20.21692 -2.37919,38.49895 -3e-5,18.282 1.5488,32.22004 2.37919,38.49842 1.32386,5.433 6.74764,5.84382 11.86232,5.37332 4.61177,-0.42424 30.82745,-2.34656 57.81611,-2.77761 v -82.18878 c -26.98866,-0.43105 -53.20434,-2.35337 -57.81611,-2.77761 -0.63934,-0.0588 -1.28353,-0.10397 -1.92391,-0.12712 -0.56033,-0.0203 -1.1178,-0.024 -1.66657,-0.005 z m 202.58919,8.30802 c 2.22675,-0.0197 4.47859,-9.8e-4 6.71897,0.047 2.24039,0.0481 4.46907,0.12539 6.6492,0.22376 4.36027,0.19674 8.52641,0.47675 12.20236,0.76998 3.67594,0.29323 6.86197,0.59957 9.26248,0.84956 2.40052,0.24999 4.0156,0.44355 4.5496,0.51056 0,0 -3.01449,0.444 -7.48275,1.2082 -2.23414,0.3821 -4.83153,0.84432 -7.59747,1.37098 -2.76595,0.52664 -5.70068,1.11782 -8.60826,1.75803 -2.90759,0.6402 -5.78849,1.3293 -8.44755,2.05207 -1.32952,0.36138 -2.60346,0.73122 -3.7977,1.10742 -1.19424,0.37621 -2.30848,0.75903 -3.31866,1.14619 -1.01018,0.38716 -1.91602,0.77881 -2.69337,1.17305 -0.77734,0.39424 -1.42611,0.79112 -1.92185,1.18856 -0.24788,0.19872 -0.45747,0.39755 -0.6258,0.59635 -0.16832,0.19879 -0.29558,0.39744 -0.37827,0.59583 -0.0827,0.19838 -0.1212,0.39627 -0.11214,0.59376 0.009,0.19749 0.0657,0.39455 0.1726,0.59066 0.10689,0.19611 0.2601,0.37862 0.45734,0.54777 0.19724,0.16915 0.43858,0.32474 0.72088,0.46819 0.56458,0.28689 1.29382,0.52358 2.16679,0.7152 0.87298,0.19162 1.88979,0.33851 3.02876,0.44493 1.13896,0.10642 2.40002,0.17285 3.76256,0.20413 2.72507,0.0626 5.85524,-0.0152 9.22011,-0.19276 3.36486,-0.1776 6.96451,-0.45545 10.62984,-0.79271 3.66534,-0.33727 7.39608,-0.73392 11.02259,-1.15032 3.6265,-0.41641 7.14893,-0.85259 10.39729,-1.26762 6.49673,-0.83007 11.89786,-1.57675 14.84613,-1.91823 -0.0893,0.87405 -0.26606,1.74474 -0.52297,2.60449 -0.25692,0.85975 -0.59412,1.70853 -1.00511,2.5399 -0.41099,0.83136 -0.8954,1.64505 -1.44694,2.43396 -0.55154,0.7889 -1.16991,1.5533 -1.84846,2.28564 -0.67855,0.73236 -1.41766,1.43272 -2.20969,2.09445 -0.79203,0.66173 -1.63705,1.28487 -2.52904,1.8619 -0.89198,0.57703 -1.83073,1.10771 -2.80913,1.58595 -0.9784,0.47824 -1.9966,0.9038 -3.04788,1.26918 -1.8513,-0.3749 -4.80893,-0.86654 -8.49974,-1.37305 -3.6908,-0.5065 -8.11489,-1.02808 -12.89843,-1.46192 -2.39177,-0.21692 -4.87359,-0.41161 -7.39852,-0.57206 -2.52494,-0.16045 -5.09318,-0.28639 -7.65793,-0.36484 -2.56476,-0.0785 -5.12604,-0.10971 -7.63726,-0.0806 -2.51123,0.0291 -4.97216,0.11844 -7.3365,0.2806 -1.98994,0.13648 -4.24926,0.43096 -6.64353,0.79685 -2.39426,0.36589 -4.92348,0.80339 -7.45329,1.22525 -2.52981,0.42186 -5.06033,0.82837 -7.45691,1.13275 -1.19829,0.15218 -2.36324,0.27867 -3.47782,0.36897 -1.11459,0.0903 -2.17874,0.14417 -3.17603,0.15089 -1.29331,0.009 -2.58847,-0.081 -3.86488,-0.24494 -1.27642,-0.16398 -2.53407,-0.40225 -3.75223,-0.68989 -1.21817,-0.28764 -2.39701,-0.62474 -3.51555,-0.98702 -1.11854,-0.36226 -2.17677,-0.74951 -3.15433,-1.13739 -1.95511,-0.77576 -3.58692,-1.55386 -4.72994,-2.13786 -1.14301,-0.584 -1.79731,-0.9741 -1.79731,-0.9741 0,0 1.63876,0.44043 4.15841,0.96428 1.25982,0.26193 2.73984,0.54474 4.34547,0.80357 1.60563,0.25883 3.33688,0.49406 5.09891,0.66043 1.76202,0.16636 3.5549,0.26403 5.28392,0.24856 0.8645,-0.008 1.71294,-0.0437 2.53369,-0.11369 0.82074,-0.07 1.61348,-0.17395 2.36678,-0.31729 0.7533,-0.14334 1.46741,-0.32607 2.12959,-0.55397 0.66218,-0.2279 1.27265,-0.50113 1.82004,-0.82476 0.54738,-0.32363 1.0313,-0.69756 1.44022,-1.12809 0.40892,-0.43054 0.74284,-0.91747 0.98961,-1.46606 0.10797,-0.24003 0.17461,-0.49227 0.20515,-0.75551 0.0305,-0.26325 0.0249,-0.53771 -0.0114,-0.82114 -0.0726,-0.56687 -0.26802,-1.17103 -0.54415,-1.80041 -0.27614,-0.62938 -0.63304,-1.28369 -1.02784,-1.9513 -0.39479,-0.66762 -0.82772,-1.34829 -1.25626,-2.02985 -0.42854,-0.68156 -0.85253,-1.36431 -1.2299,-2.03554 -0.37737,-0.67122 -0.708,-1.33124 -0.94929,-1.96783 -0.24128,-0.63661 -0.39313,-1.24959 -0.41341,-1.82728 -0.0101,-0.28885 0.0123,-0.56863 0.0734,-0.8382 0.061,-0.26956 0.16052,-0.52893 0.30334,-0.77618 0.18737,-0.32436 0.41356,-0.63485 0.67592,-0.93172 0.26237,-0.29687 0.56099,-0.58019 0.89401,-0.8506 0.66605,-0.54079 1.46897,-1.02962 2.39158,-1.47071 0.9226,-0.44109 1.96497,-0.83431 3.10937,-1.1839 1.1444,-0.3496 2.39083,-0.6556 3.72226,-0.92191 1.33143,-0.26631 2.74756,-0.49295 4.23126,-0.6842 1.48369,-0.19125 3.03521,-0.34688 4.63641,-0.47129 3.20239,-0.2488 6.60482,-0.37235 10.06864,-0.40307 z m -315.818971,4.41523 h 15.39906 v 49.37218 c 0,11.98195 -6.098579,20.49229 -22.409485,20.49229 H -2.7556941 V 191.6281 c 0,-0.77575 1.138355,-1.37873 2.64169903,-1.37873 H 16.344949 c 10.18446,-1.61778 10.38903,-3.46727 10.38903,-20.19153 z m 66.421267,0 c 1.98251,0 4.78684,1.36739 6.01307,4.14962 l 26.624224,63.01372 c 0.14779,0.31932 0.81606,2.70113 -2.44172,2.70113 h -13.48238 l -4.54287,-12.80335 H 93.155246 80.984936 l -4.54288,12.80335 h -13.48186 c -3.25782,0 -2.59,-2.38181 -2.44223,-2.70113 l 26.62473,-63.01372 c 1.22622,-2.78223 4.03,-4.14962 6.01255,-4.14962 z m 173.968714,9.56686 a 4.4796491,7.1859055 0 0 1 1.76475,0.58084 4.4796491,7.1859055 0 0 1 1.47898,1.649 v -0.0899 c 0.31435,0.24483 0.67512,0.47622 1.07849,0.69557 0.40338,0.21934 0.84933,0.4264 1.33325,0.62218 0.96786,0.39157 2.08824,0.73814 3.32745,1.04696 1.2392,0.30883 2.59727,0.58022 4.04006,0.82166 1.4428,0.24144 2.97049,0.45294 4.54908,0.64234 3.15718,0.37879 6.5181,0.66901 9.8118,0.93172 3.29371,0.26272 6.52022,0.49797 9.40821,0.7674 -2.8205,0.34725 -6.03756,0.60826 -9.3493,0.85421 -3.31175,0.24595 -6.7181,0.47684 -9.91671,0.76429 -1.59931,0.14373 -3.14667,0.30178 -4.60437,0.48266 -1.4577,0.18089 -2.82587,0.38475 -4.06642,0.62064 -1.24054,0.23588 -2.35375,0.50361 -3.3016,0.81235 -0.94785,0.30874 -1.73034,0.65836 -2.30994,1.05782 v -0.13074 a 4.4796491,7.1859055 0 0 1 -1.47795,1.65622 4.4796491,7.1859055 0 0 1 -1.76578,0.58757 4.4796491,7.1859055 0 0 1 -2.24017,-0.96274 4.4796491,7.1859055 0 0 1 -1.6397,-2.63033 4.4796491,7.1859055 0 0 1 -0.59996,-3.59306 4.4796491,7.1859055 0 0 1 0.59996,-3.59306 4.4796491,7.1859055 0 0 1 1.6397,-2.63033 4.4796491,7.1859055 0 0 1 2.24017,-0.96273 z m 43.28573,1.26142 a 6.3355026,4.4796491 0 0 1 3.16725,0.59996 6.3355026,4.4796491 0 0 1 2.31872,1.6397 6.3355026,4.4796491 0 0 1 0.84904,2.23965 6.3355026,4.4796491 0 0 1 -0.15864,0.99684 6.3355026,4.4796491 0 0 1 -0.46871,0.94672 6.3355026,4.4796491 0 0 1 -0.75447,0.84956 6.3355026,4.4796491 0 0 1 -1.00304,0.709 6.3355026,4.4796491 0 0 1 -1.20148,0.53381 6.3355026,4.4796491 0 0 1 -1.33894,0.33177 6.3355026,4.4796491 0 0 1 -1.40973,0.11213 6.3355026,4.4796491 0 0 1 -3.16776,-0.59996 6.3355026,4.4796491 0 0 1 -2.31924,-1.64021 6.3355026,4.4796491 0 0 1 -0.84853,-2.23966 6.3355026,4.4796491 0 0 1 0.84904,-2.23965 6.3355026,4.4796491 0 0 1 2.31873,-1.6397 6.3355026,4.4796491 0 0 1 3.16776,-0.59996 z m -217.254444,12.68915 -8.71626,20.32331 h 17.432534 z m 253.862544,6.71845 c 2.22674,-0.0198 4.47858,-9.7e-4 6.71897,0.047 2.24038,0.048 4.46908,0.12539 6.64921,0.22376 4.36026,0.19673 8.52641,0.47674 12.20235,0.76998 3.67595,0.29323 6.86197,0.59957 9.26249,0.84956 2.40053,0.24999 4.01558,0.44355 4.54959,0.51056 0,0 -3.01448,0.444 -7.48275,1.20819 -2.23412,0.3821 -4.83153,0.84433 -7.59747,1.37098 -2.76593,0.52665 -5.70067,1.11783 -8.60826,1.75803 -2.90758,0.64021 -5.78848,1.32931 -8.44754,2.05207 -1.32952,0.36138 -2.60346,0.73122 -3.7977,1.10743 -1.19424,0.37621 -2.30848,0.75902 -3.31866,1.14618 -1.01018,0.38716 -1.91604,0.77882 -2.69338,1.17306 -0.77735,0.39424 -1.42611,0.79112 -1.92185,1.18856 -0.24786,0.19872 -0.45747,0.39755 -0.6258,0.59634 -0.16833,0.1988 -0.29559,0.39745 -0.37827,0.59583 -0.0827,0.19838 -0.12119,0.39627 -0.11214,0.59376 0.009,0.19749 0.0657,0.39455 0.1726,0.59066 0.10689,0.19612 0.2601,0.37864 0.45734,0.54777 0.19725,0.16915 0.4386,0.32475 0.72089,0.46819 0.56459,0.28689 1.29381,0.52358 2.16679,0.71521 0.87299,0.19162 1.88979,0.33851 3.02875,0.44493 1.13897,0.10642 2.40004,0.17284 3.76257,0.20412 2.72506,0.0626 5.85525,-0.0151 9.2201,-0.19275 3.36486,-0.17761 6.96451,-0.45545 10.62985,-0.79272 3.66533,-0.33726 7.39607,-0.73391 11.02258,-1.15032 3.62651,-0.4164 7.14894,-0.85259 10.3973,-1.26762 6.49672,-0.83006 11.89784,-1.57674 14.84612,-1.91823 -0.0893,0.87406 -0.26605,1.74423 -0.52297,2.60398 -0.25692,0.85975 -0.5941,1.70904 -1.0051,2.54041 -0.41099,0.83137 -0.8954,1.64506 -1.44694,2.43396 -0.55154,0.7889 -1.16992,1.55329 -1.84847,2.28565 -0.67856,0.73236 -1.41764,1.43271 -2.20968,2.09445 -0.79203,0.66172 -1.63707,1.28487 -2.52905,1.8619 -0.89198,0.57702 -1.83073,1.1077 -2.80913,1.58595 -0.9784,0.47824 -1.99658,0.90379 -3.04787,1.26917 -1.85129,-0.37489 -4.80894,-0.86654 -8.49974,-1.37304 -3.69081,-0.50651 -8.1149,-1.02809 -12.89844,-1.46193 -2.39177,-0.21692 -4.87358,-0.41161 -7.39852,-0.57206 -2.52493,-0.16045 -5.09318,-0.28638 -7.65793,-0.36483 -2.56474,-0.0785 -5.12604,-0.10972 -7.63726,-0.0806 -2.51121,0.0291 -4.97216,0.11845 -7.3365,0.28061 -1.98995,0.13646 -4.24925,0.43096 -6.64352,0.79685 -2.39426,0.36589 -4.92348,0.80339 -7.45329,1.22524 -2.52981,0.42186 -5.06032,0.82837 -7.45691,1.13275 -1.19829,0.15219 -2.36324,0.27867 -3.47783,0.36897 -1.11459,0.0903 -2.17875,0.14417 -3.17603,0.1509 -1.29331,0.009 -2.58846,-0.081 -3.86488,-0.24495 -1.27641,-0.16398 -2.53407,-0.40224 -3.75223,-0.68988 -1.21815,-0.28764 -2.397,-0.62475 -3.51554,-0.98702 -1.11854,-0.36227 -2.17677,-0.74952 -3.15433,-1.1374 -1.95512,-0.77576 -3.58694,-1.55385 -4.72995,-2.13785 -1.14302,-0.584 -1.7973,-0.9741 -1.7973,-0.9741 0,0 1.63875,0.44043 4.1584,0.96428 1.25983,0.26192 2.73983,0.54474 4.34547,0.80357 1.60563,0.25883 3.33689,0.49406 5.09891,0.66042 1.76203,0.16637 3.55491,0.26404 5.28392,0.24857 0.86451,-0.008 1.71296,-0.0437 2.53369,-0.11369 0.82074,-0.07 1.61349,-0.17395 2.36679,-0.3173 0.75329,-0.14334 1.46739,-0.32607 2.12958,-0.55397 0.66218,-0.2279 1.27266,-0.50112 1.82004,-0.82475 0.54739,-0.32363 1.03131,-0.69757 1.44023,-1.1281 0.40892,-0.43053 0.74282,-0.91745 0.9896,-1.46606 0.10796,-0.24003 0.17462,-0.49226 0.20516,-0.75551 0.0305,-0.26325 0.0249,-0.53771 -0.0114,-0.82114 -0.0726,-0.56686 -0.26803,-1.17103 -0.54416,-1.8004 -0.27613,-0.62939 -0.63305,-1.28369 -1.02784,-1.95131 -0.3948,-0.66761 -0.82771,-1.34829 -1.25625,-2.02985 -0.42854,-0.68156 -0.85253,-1.36431 -1.2299,-2.03553 -0.37737,-0.67123 -0.70802,-1.33124 -0.9493,-1.96784 -0.24129,-0.6366 -0.39313,-1.24959 -0.41341,-1.82728 -0.0101,-0.28884 0.0123,-0.56863 0.0734,-0.83819 0.061,-0.26957 0.16052,-0.52893 0.30334,-0.77618 0.18736,-0.32437 0.41357,-0.63485 0.67593,-0.93173 0.26237,-0.29687 0.56097,-0.58019 0.894,-0.85059 0.66605,-0.54081 1.46899,-1.02962 2.39159,-1.47071 0.92261,-0.44109 1.96497,-0.83431 3.10937,-1.18391 1.1444,-0.34959 2.39082,-0.65559 3.72225,-0.92191 1.33142,-0.26631 2.74758,-0.49294 4.23127,-0.68419 1.4837,-0.19125 3.03521,-0.34689 4.63641,-0.47129 3.20239,-0.24881 6.60481,-0.37236 10.06863,-0.40308 z m -75.42899,13.98261 a 4.4796491,7.1859055 0 0 1 1.76475,0.58084 4.4796491,7.1859055 0 0 1 1.47898,1.649 v -0.0904 c 0.31435,0.24482 0.67511,0.47621 1.07849,0.69556 0.40337,0.21935 0.84932,0.4264 1.33325,0.62218 0.96785,0.39157 2.08824,0.73814 3.32745,1.04697 1.23922,0.30883 2.59727,0.58022 4.04006,0.82165 1.44279,0.24144 2.97049,0.45295 4.54908,0.64234 3.15719,0.3788 6.5181,0.66901 9.8118,0.93173 3.29371,0.26272 6.52023,0.49797 9.40821,0.76739 -2.82048,0.34725 -6.03756,0.60827 -9.3493,0.85422 -3.31173,0.24593 -6.71809,0.47683 -9.9167,0.76429 -1.5993,0.14373 -3.14667,0.30177 -4.60437,0.48266 -1.4577,0.18088 -2.82587,0.38474 -4.06642,0.62063 -1.24055,0.23589 -2.35376,0.50362 -3.30161,0.81235 -0.94786,0.30875 -1.73034,0.65837 -2.30994,1.05782 v -0.13074 a 4.4796491,7.1859055 0 0 1 -1.47794,1.65623 4.4796491,7.1859055 0 0 1 -1.76579,0.58756 4.4796491,7.1859055 0 0 1 -2.24017,-0.96273 4.4796491,7.1859055 0 0 1 -1.63969,-2.63033 4.4796491,7.1859055 0 0 1 -0.59997,-3.59306 4.4796491,7.1859055 0 0 1 0.59997,-3.59307 4.4796491,7.1859055 0 0 1 1.63969,-2.63033 4.4796491,7.1859055 0 0 1 2.24017,-0.96273 z m 43.28573,1.26091 a 6.3355026,4.4796491 0 0 1 3.16725,0.60048 6.3355026,4.4796491 0 0 1 2.31872,1.63917 6.3355026,4.4796491 0 0 1 0.84905,2.23966 6.3355026,4.4796491 0 0 1 -0.15865,0.99684 6.3355026,4.4796491 0 0 1 -0.4687,0.94671 6.3355026,4.4796491 0 0 1 -0.75448,0.84956 6.3355026,4.4796491 0 0 1 -1.00304,0.709 6.3355026,4.4796491 0 0 1 -1.20148,0.53382 6.3355026,4.4796491 0 0 1 -1.33893,0.33176 6.3355026,4.4796491 0 0 1 -1.40974,0.11214 6.3355026,4.4796491 0 0 1 -3.16776,-0.59996 6.3355026,4.4796491 0 0 1 -2.31924,-1.64021 6.3355026,4.4796491 0 0 1 -0.84853,-2.23966 6.3355026,4.4796491 0 0 1 0.84905,-2.23966 6.3355026,4.4796491 0 0 1 2.31872,-1.63969 6.3355026,4.4796491 0 0 1 3.16776,-0.59996 z m 36.60811,19.40811 c 2.22674,-0.0197 4.47859,-9.7e-4 6.71897,0.047 2.24038,0.048 4.46906,0.12539 6.6492,0.22376 4.36027,0.19673 8.52642,0.47675 12.20236,0.76998 3.67594,0.29323 6.86195,0.59957 9.26248,0.84956 2.40052,0.24999 4.0156,0.44355 4.5496,0.51056 0,0 -3.01449,0.444 -7.48275,1.2082 -2.23413,0.3821 -4.83152,0.84432 -7.59747,1.37097 -2.76594,0.52665 -5.70067,1.11783 -8.60826,1.75803 -2.90758,0.64021 -5.7885,1.32931 -8.44755,2.05208 -1.32953,0.36137 -2.60346,0.73121 -3.7977,1.10742 -1.19424,0.37621 -2.30848,0.75902 -3.31866,1.14618 -1.01018,0.38717 -1.91603,0.77882 -2.69337,1.17306 -0.77735,0.39424 -1.4261,0.79112 -1.92185,1.18856 -0.24787,0.19872 -0.45747,0.39755 -0.6258,0.59634 -0.16833,0.1988 -0.29558,0.39745 -0.37827,0.59583 -0.0827,0.19839 -0.12119,0.39628 -0.11214,0.59376 0.009,0.19749 0.0657,0.39456 0.1726,0.59067 0.10689,0.19611 0.26009,0.37862 0.45733,0.54777 0.19724,0.16915 0.4386,0.32474 0.72089,0.46819 0.56459,0.28687 1.2938,0.52357 2.16679,0.7152 0.87298,0.19162 1.8898,0.33851 3.02876,0.44493 1.13897,0.10642 2.40003,0.17284 3.76256,0.20412 2.72508,0.0626 5.85525,-0.0151 9.22011,-0.19275 3.36486,-0.17761 6.96449,-0.45545 10.62984,-0.79272 3.66534,-0.33726 7.39608,-0.73391 11.02258,-1.15031 3.62651,-0.41641 7.14893,-0.85259 10.3973,-1.26763 6.49672,-0.83006 11.89786,-1.57674 14.84612,-1.91823 -0.0893,0.87406 -0.26604,1.74423 -0.52296,2.60398 -0.25691,0.85975 -0.59412,1.70905 -1.00511,2.54041 -0.411,0.83137 -0.8954,1.64506 -1.44694,2.43396 -0.55154,0.7889 -1.16992,1.55329 -1.84846,2.28565 -0.67855,0.73236 -1.41766,1.43271 -2.20969,2.09445 -0.79204,0.66173 -1.63706,1.28487 -2.52904,1.8619 -0.89198,0.57703 -1.83074,1.10771 -2.80913,1.58595 -0.9784,0.47824 -1.9966,0.90379 -3.04788,1.26917 -1.8513,-0.37489 -4.80894,-0.86654 -8.49974,-1.37304 -3.69081,-0.5065 -8.1149,-1.02809 -12.89844,-1.46193 -2.39177,-0.21692 -4.87357,-0.4116 -7.39851,-0.57206 -2.52493,-0.16045 -5.09318,-0.28638 -7.65793,-0.36483 -2.56475,-0.0785 -5.12604,-0.10972 -7.63726,-0.0806 -2.51122,0.0291 -4.97217,0.11845 -7.33651,0.28061 -1.98993,0.13647 -4.24925,0.43096 -6.64352,0.79685 -2.39427,0.36589 -4.92348,0.80339 -7.45329,1.22525 -2.52982,0.42185 -5.06033,0.82837 -7.45691,1.13274 -1.1983,0.15219 -2.36323,0.27868 -3.47782,0.36897 -1.11459,0.0903 -2.17875,0.14417 -3.17604,0.1509 -1.2933,0.009 -2.58846,-0.081 -3.86488,-0.24495 -1.27642,-0.16397 -2.53406,-0.40224 -3.75222,-0.68988 -1.21816,-0.28764 -2.39701,-0.62474 -3.51555,-0.98702 -1.11855,-0.36227 -2.17677,-0.74952 -3.15433,-1.1374 -1.95513,-0.77575 -3.58692,-1.55385 -4.72994,-2.13785 -1.14301,-0.584 -1.79731,-0.9741 -1.79731,-0.9741 0,0 1.63875,0.44043 4.1584,0.96428 1.25983,0.26193 2.73985,0.54474 4.34547,0.80357 1.60563,0.25883 3.3369,0.49406 5.09892,0.66042 1.76203,0.16637 3.55489,0.26404 5.28391,0.24857 0.86451,-0.008 1.71296,-0.0437 2.5337,-0.11369 0.82075,-0.07 1.61348,-0.17395 2.36678,-0.31729 0.7533,-0.14335 1.46741,-0.32607 2.12958,-0.55398 0.66218,-0.2279 1.27267,-0.50112 1.82005,-0.82475 0.54739,-0.32363 1.0313,-0.69756 1.44022,-1.1281 0.40891,-0.43053 0.74283,-0.91745 0.9896,-1.46606 0.10797,-0.24003 0.17462,-0.49226 0.20516,-0.75551 0.0305,-0.26325 0.0249,-0.5377 -0.0114,-0.82114 -0.0726,-0.56686 -0.26801,-1.17102 -0.54415,-1.8004 -0.27613,-0.62938 -0.63306,-1.2837 -1.02785,-1.9513 -0.3948,-0.66762 -0.82771,-1.34829 -1.25625,-2.02986 -0.42855,-0.68155 -0.85253,-1.36431 -1.2299,-2.03553 -0.37737,-0.67122 -0.70802,-1.33124 -0.9493,-1.96784 -0.24127,-0.6366 -0.39313,-1.24958 -0.41341,-1.82728 -0.0101,-0.28884 0.0123,-0.56862 0.0734,-0.83819 0.061,-0.26956 0.16052,-0.52893 0.30334,-0.77618 0.18737,-0.32437 0.41356,-0.63486 0.67593,-0.93172 0.26237,-0.29688 0.56097,-0.5802 0.894,-0.8506 0.66605,-0.5408 1.46898,-1.02962 2.39159,-1.47071 0.9226,-0.44109 1.96497,-0.83431 3.10937,-1.18391 1.14439,-0.34959 2.39083,-0.6556 3.72225,-0.9219 1.33143,-0.26632 2.74757,-0.49295 4.23127,-0.6842 1.48369,-0.19125 3.03521,-0.34689 4.63641,-0.47129 3.20239,-0.24881 6.60481,-0.37236 10.06864,-0.40308 z m -150.11229,10.67687 c -23.88049,0.28642 -40.28611,1.45248 -56.48131,2.79415 -7.68447,0.63661 -11.51961,2.18965 -9.99525,9.75806 4.20809,20.89287 10.41977,37.97551 19.10736,54.91861 1.74911,3.41126 6.7663,4.17279 9.2816,3.99355 9.3348,-0.66519 22.33231,-0.94847 38.0876,-1.05006 z m 74.6833,3.30574 a 4.4796491,7.1859055 0 0 1 1.76475,0.58085 4.4796491,7.1859055 0 0 1 1.47898,1.64899 v -0.0904 c 0.31436,0.24482 0.67511,0.47622 1.07849,0.69556 0.40337,0.21935 0.84933,0.4264 1.33325,0.62219 0.96785,0.39156 2.08823,0.73813 3.32744,1.04696 1.23921,0.30883 2.59728,0.58022 4.04007,0.82166 1.44278,0.24144 2.97048,0.45294 4.54907,0.64233 3.15718,0.3788 6.51811,0.66901 9.81181,0.93173 3.2937,0.26272 6.52022,0.49797 9.40821,0.7674 -2.82049,0.34723 -6.03756,0.60826 -9.3493,0.85421 -3.31174,0.24594 -6.7181,0.47683 -9.91671,0.76429 -1.59931,0.14373 -3.14667,0.30178 -4.60437,0.48266 -1.45771,0.18088 -2.82587,0.38475 -4.06642,0.62063 -1.24055,0.23589 -2.35376,0.50361 -3.30161,0.81236 -0.94784,0.30874 -1.73032,0.65836 -2.30993,1.05781 V 224.746 a 4.4796491,7.1859055 0 0 1 -1.47795,1.65623 4.4796491,7.1859055 0 0 1 -1.76578,0.58756 4.4796491,7.1859055 0 0 1 -2.24017,-0.96273 4.4796491,7.1859055 0 0 1 -1.6397,-2.63033 4.4796491,7.1859055 0 0 1 -0.59996,-3.59306 4.4796491,7.1859055 0 0 1 0.59996,-3.59306 4.4796491,7.1859055 0 0 1 1.6397,-2.63034 4.4796491,7.1859055 0 0 1 2.24017,-0.96273 z m -151.49515,0.79324 c -2.3043,0.0637 -5.44045,0.75139 -9.94203,1.40301 l -38.668444,5.59708 c -5.88797,0.85228 -8.60021,3.33807 -7.08794,6.74119 8.72292,19.62931 20.17264,36.62234 36.179714,51.14468 2.18271,2.04904 4.74788,5.94991 14.02188,5.14284 l 27.59522,-2.40141 c 5.8941,-0.51294 4.35228,-4.11084 3.44836,-6.0358 -7.66075,-16.31422 -13.84426,-32.50566 -17.2806,-48.46785 -2.1565,-10.01721 -3.37067,-12.86686 -7.32771,-13.11082 -0.29678,-0.0183 -0.60926,-0.022 -0.93845,-0.0129 z m 194.78088,0.46767 a 6.3355026,4.4796491 0 0 1 3.16725,0.59996 6.3355026,4.4796491 0 0 1 2.31872,1.63969 6.3355026,4.4796491 0 0 1 0.84904,2.23966 6.3355026,4.4796491 0 0 1 -0.15864,0.99684 6.3355026,4.4796491 0 0 1 -0.46871,0.94671 6.3355026,4.4796491 0 0 1 -0.75448,0.84956 6.3355026,4.4796491 0 0 1 -1.00304,0.709 6.3355026,4.4796491 0 0 1 -1.20147,0.53382 6.3355026,4.4796491 0 0 1 -1.33894,0.33176 6.3355026,4.4796491 0 0 1 -1.40973,0.11214 6.3355026,4.4796491 0 0 1 -3.16777,-0.59996 6.3355026,4.4796491 0 0 1 -2.31924,-1.64021 6.3355026,4.4796491 0 0 1 -0.84852,-2.23966 6.3355026,4.4796491 0 0 1 0.84904,-2.23966 6.3355026,4.4796491 0 0 1 2.31872,-1.63969 6.3355026,4.4796491 0 0 1 3.16777,-0.59996 z M 57.324876,224.27468 c -0.69087,0.0152 -1.438169,0.10412 -2.248958,0.27699 -5.719265,1.21943 -29.447067,6.89229 -48.8874551,12.87983 1.347643,1.77173 2.717075,3.53322 4.1563351,5.25911 1.698913,2.03727 3.460545,4.04221 5.282365,6.01411 1.82182,1.97186 3.703598,3.91084 5.643067,5.81566 1.939469,1.90482 3.936919,3.77551 5.988782,5.61155 2.05186,1.83601 4.158445,3.63773 6.317443,5.40328 2.158998,1.76556 4.370241,3.49549 6.63112,5.18883 2.260881,1.69338 4.57179,3.35024 6.929293,4.96973 2.357504,1.61946 4.762059,3.20154 7.210929,4.74544 2.448869,1.5439 4.942089,3.0494 7.477059,4.51601 2.53499,1.4666 5.11187,2.89429 7.7277,4.28191 1.01627,0.53909 2.06542,1.04347 3.09335,1.57044 11.12704,-2.03977 22.79511,-3.98897 26.1798,-4.3987 4.752994,-0.57533 9.053224,-2.37632 1.11672,-8.36176 -8.26388,-5.70478 -32.35989,-41.71736 -33.80465,-47.10927 -0.98115,-3.66169 -3.97683,-6.76939 -8.8129,-6.66316 z m 144.045474,56.85648 c -14.80747,0.10451 -21.95645,0.38393 -33.60725,1.00769 -6.15552,0.32955 -9.19993,1.11896 -5.09478,6.69365 5.82874,7.91523 15.48091,19.9169 34.44803,28.47681 0.74877,-0.52872 1.47578,-1.07697 2.04328,-1.75234 0.35097,-0.41769 0.66434,-0.86441 0.93741,-1.34204 0.27307,-0.47763 0.50593,-0.98604 0.69454,-1.52652 0.18861,-0.54048 0.33338,-1.11304 0.43098,-1.71928 0.0976,-0.60624 0.14779,-1.2459 0.14779,-1.92081 z m -52.88514,2.23397 c -0.91315,-0.0157 -1.92664,0.013 -3.05253,0.0971 -7.51112,0.56144 -15.01438,1.17278 -22.49837,2.04122 -8.2786,0.84061 -6.46652,1.92652 -3.18223,4.2907 26.85635,19.33232 53.18219,25.84389 70.9259,28.25719 -13.59357,-6.88015 -32.66765,-30.63108 -33.54937,-31.51281 -0.77151,-0.7715 -2.25136,-3.06357 -8.6434,-3.17345 z m -41.60935,5.23431 c -1.69633,-0.0336 -3.47855,0.17337 -5.38468,0.52865 -8.786244,0.74613 -16.659124,2.20923 -24.975224,3.64422 0.33648,0.16523 0.66127,0.343 0.9989,0.50695 2.69144,1.30688 5.41913,2.57318 8.1809,3.7977 2.76178,1.22451 5.55763,2.40769 8.3845,3.5481 2.82685,1.14041 5.68489,2.23822 8.571574,3.29282 5.77337,2.10921 11.6612,4.04491 17.64233,5.80068 5.98114,1.75577 12.05618,3.33142 18.20303,4.72013 6.14685,1.38871 12.36607,2.59074 18.63659,3.59874 6.2705,1.00802 12.59245,1.82232 18.94458,2.43603 1.54754,0.14952 3.10367,0.25209 4.64157,0.29559 1.45742,0.0412 2.89355,0.0195 4.29638,-0.0548 -24.46152,-5.13637 -46.78631,-12.71128 -70.19726,-29.52119 -2.52708,-1.81453 -5.116,-2.53772 -7.94319,-2.59364 z" /></g></svg>
