<?xml version="1.0" encoding="UTF-8" standalone="no"?>
<!-- Created with Inkscape (http://www.inkscape.org/) -->

<svg
   width="1920"
   height="1246.3612"
   viewBox="0 0 507.99999 329.7664"
   version="1.1"
   id="svg1"
   xml:space="preserve"
   inkscape:version="1.3 (0e150ed6c4, 2023-07-21)"
   sodipodi:docname="Logo JA.svg"
   inkscape:export-filename="Logo JA.svg"
   inkscape:export-xdpi="96"
   inkscape:export-ydpi="96"
   xmlns:inkscape="http://www.inkscape.org/namespaces/inkscape"
   xmlns:sodipodi="http://sodipodi.sourceforge.net/DTD/sodipodi-0.dtd"
   xmlns="http://www.w3.org/2000/svg"
   xmlns:svg="http://www.w3.org/2000/svg"><sodipodi:namedview
     id="namedview1"
     pagecolor="#505050"
     bordercolor="#ffffff"
     borderopacity="1"
     inkscape:showpageshadow="0"
     inkscape:pageopacity="0"
     inkscape:pagecheckerboard="1"
     inkscape:deskcolor="#505050"
     inkscape:document-units="mm"
     inkscape:zoom="0.099989318"
     inkscape:cx="3620.3867"
     inkscape:cy="250.02671"
     inkscape:window-width="1366"
     inkscape:window-height="706"
     inkscape:window-x="-8"
     inkscape:window-y="-8"
     inkscape:window-maximized="1"
     inkscape:current-layer="svg1"
     showborder="true" /><defs
     id="defs1" /><style
     type="text/css"
     id="style1">&#10;	.st0{fill:#FFD200;}&#10;	.st1{fill-rule:evenodd;clip-rule:evenodd;fill:#13B5EA;}&#10;	.st2{fill-rule:evenodd;clip-rule:evenodd;}&#10;</style><style
     type="text/css"
     id="style1-6">&#10;	.st0{fill:#FFD200;}&#10;	.st1{fill-rule:evenodd;clip-rule:evenodd;fill:#13B5EA;}&#10;	.st2{fill-rule:evenodd;clip-rule:evenodd;}&#10;</style><style
     type="text/css"
     id="style1-9">&#10;	.st0{fill:#FFD200;}&#10;	.st1{fill-rule:evenodd;clip-rule:evenodd;fill:#13B5EA;}&#10;	.st2{fill-rule:evenodd;clip-rule:evenodd;}&#10;</style><style
     type="text/css"
     id="style1-4">&#10;	.st0{fill:#FFD200;}&#10;	.st1{fill-rule:evenodd;clip-rule:evenodd;fill:#13B5EA;}&#10;	.st2{fill-rule:evenodd;clip-rule:evenodd;}&#10;</style><style
     type="text/css"
     id="style1-9-0">&#10;	.st0{fill:#FFD200;}&#10;	.st1{fill-rule:evenodd;clip-rule:evenodd;fill:#13B5EA;}&#10;	.st2{fill-rule:evenodd;clip-rule:evenodd;}&#10;</style><style
     type="text/css"
     id="style1-7">&#10;	.st0{fill:#FFD200;}&#10;	.st1{fill-rule:evenodd;clip-rule:evenodd;fill:#13B5EA;}&#10;	.st2{fill-rule:evenodd;clip-rule:evenodd;}&#10;</style><style
     type="text/css"
     id="style1-71">&#10;	.st0{fill:#FFD200;}&#10;	.st1{fill-rule:evenodd;clip-rule:evenodd;fill:#13B5EA;}&#10;	.st2{fill-rule:evenodd;clip-rule:evenodd;}&#10;</style><style
     type="text/css"
     id="style1-1">&#10;	.st0{fill:#FFD200;}&#10;	.st1{fill-rule:evenodd;clip-rule:evenodd;fill:#13B5EA;}&#10;	.st2{fill-rule:evenodd;clip-rule:evenodd;}&#10;</style><g
     id="g76"
     inkscape:label="Logo JA"
     transform="translate(-1119.1193,5.1679554e-4)"
     style="fill:#000000"><path
       id="path24-6"
       style="display:inline;vector-effect:non-scaling-stroke;fill:#000000;stroke:none;stroke-width:0.266094;stroke-miterlimit:10;-inkscape-stroke:hairline;paint-order:markers stroke fill"
       inkscape:highlight-color="#000000"
       inkscape:label="Logo JA"
       d="M 1373.1193,-5.1676432e-4 C 1362.0326,-6.287641e-4 1350.9574,0.4704689 1339.9658,1.4097331 c -10.992,0.939492 -21.8776,2.3451915 -32.5867,4.2080119 -10.7089,1.8625822 -21.2188,4.1783672 -31.4616,6.932393 -10.2428,2.754236 -20.1969,5.940916 -29.7982,9.53947 -9.6013,3.598392 -18.8295,7.601092 -27.6252,11.982214 -8.7957,4.381262 -17.1403,9.131778 -24.9799,14.220838 -7.8395,5.088818 -15.1576,10.505502 -21.9066,16.21503 -6.7493,5.70979 -12.9155,11.700459 -18.4589,17.933273 -5.5432,6.232696 -10.452,12.694463 -14.6947,19.343517 -4.2427,6.64904 -7.8104,13.47193 -10.6799,20.42356 -2.8695,6.95165 -5.0347,14.01793 -6.4818,21.15324 -1.4471,7.13535 -2.173,14.32423 -2.173,21.52116 0,7.19695 0.7259,14.38632 2.173,21.52169 1.4471,7.13529 3.6123,14.20158 6.4818,21.15323 2.8695,6.95163 6.4372,13.77452 10.6799,20.42356 4.2427,6.64905 9.1515,13.11031 14.6947,19.343 5.5434,6.23283 11.7096,12.22349 18.4589,17.93327 6.749,5.70954 14.0671,11.12622 21.9066,16.21503 7.8396,5.08907 16.1842,9.83959 24.9799,14.22084 8.7957,4.38113 18.0239,8.38382 27.6252,11.98222 9.6013,3.59854 19.5554,6.78523 29.7982,9.53947 10.2428,2.75401 20.7527,5.07032 31.4616,6.93291 10.7091,1.8628 21.5947,3.26851 32.5867,4.20801 10.9916,0.93926 22.0668,1.41036 33.1535,1.41025 11.0867,1.1e-4 22.1617,-0.47099 33.1535,-1.41025 10.992,-0.9395 21.8776,-2.34521 32.5867,-4.20801 10.7087,-1.86259 21.2188,-4.1789 31.4616,-6.93291 10.2428,-2.75424 20.1969,-5.94093 29.7982,-9.53947 9.6013,-3.5984 18.8295,-7.60109 27.6252,-11.98222 8.7957,-4.38125 17.1404,-9.13177 24.9798,-14.22084 7.8394,-5.08881 15.1575,-10.50549 21.9067,-16.21503 6.7493,-5.70978 12.9154,-11.70044 18.4588,-17.93327 5.5432,-6.23269 10.4522,-12.69395 14.6947,-19.343 4.2427,-6.64904 7.8105,-13.47193 10.68,-20.42356 2.8695,-6.95165 5.0347,-14.01794 6.4818,-21.15323 1.4471,-7.13537 2.173,-14.32474 2.173,-21.52169 0,-2.46674 -0.085,-4.9327 -0.2558,-7.39696 -0.1705,-2.46423 -0.4262,-4.92624 -0.7669,-7.38301 -0.3405,-2.45688 -0.7659,-4.90856 -1.2759,-7.35304 -0.5101,-2.44436 -1.1047,-4.88105 -1.7833,-7.30808 -0.6784,-2.427 -1.4407,-4.84386 -2.2862,-7.24866 -0.8456,-2.40497 -1.7743,-4.79686 -2.7854,-7.17475 -1.0109,-2.37791 -2.104,-4.74136 -3.2783,-7.08743 -1.1742,-2.34598 -2.4294,-4.67463 -3.7646,-6.98407 -1.3353,-2.30938 -2.7502,-4.59909 -4.2437,-6.86728 -1.4935,-2.268278 -3.0652,-4.514558 -4.7139,-6.737054 -1.6488,-2.222286 -3.3742,-4.420328 -5.1749,-6.592362 -1.8006,-2.172286 -3.6761,-4.318127 -5.625,-6.435783 -1.9491,-2.117582 -3.9712,-4.206565 -6.0647,-6.265251 -2.0933,-2.058686 -4.2576,-4.08667 -6.4911,-6.082316 -2.2335,-1.995586 -4.5358,-3.958443 -6.905,-5.886979 -2.3692,-1.928466 -4.8049,-3.822231 -7.305,-5.679757 -2.5002,-1.857666 -5.0644,-3.678706 -7.6905,-5.461682 -2.626,-1.782976 -5.3134,-3.527016 -8.06,-5.231722 -2.7466,-1.704616 -5.5518,-3.369554 -8.4134,-4.99246 -2.8616,-1.623056 -5.7791,-3.20427 -8.7499,-4.742346 -2.9709,-1.537978 -5.9949,-3.032516 -9.0692,-4.482414 -3.0742,-1.449868 -6.1981,-2.85482 -9.3694,-4.213696 -3.1714,-1.358938 -6.3895,-2.671513 -9.6516,-3.936711 -3.262,-1.265118 -6.5674,-2.482609 -9.9136,-3.651457 -3.3462,-1.168996 -6.7324,-2.289118 -10.156,-3.359484 -3.4237,-1.070178 -6.884,-2.090374 -10.3782,-3.059762 -3.4942,-0.969538 -7.0215,-1.888072 -10.5792,-2.754871 -3.5577,-0.8667264 -7.145,-1.6815387 -10.759,-2.4437781 -3.614,-0.7622624 -7.2541,-1.4717967 -10.9172,-2.1280355 -3.663,-0.6563106 -7.3485,-1.2591915 -11.053,-1.8081583 -3.7047,-0.548872 -7.4279,-1.043721 -11.1668,-1.4841472 -3.7389,-0.440467 -7.4926,-0.8264207 -11.2582,-1.1575521 -3.7655,-0.3310842 -7.5419,-0.60728161 -11.3265,-0.82837317 -3.7847,-0.22108456 -7.5767,-0.38701027 -11.3729,-0.49764405 -3.7962,-0.11062077 -7.5957,-0.16592934422 -11.3957,-0.16588134432 z M 1401.0721,8.4206746 c 4.1318,0.1042878 8.5327,0.397656 13.1527,0.8816 4.62,0.483944 9.4592,1.1585484 14.4678,2.0251994 5.0087,0.866658 10.187,1.925166 15.4849,3.177584 5.2979,1.252408 10.7157,2.698559 16.2031,4.339787 5.4875,1.641236 11.0452,3.477668 16.6228,5.510774 5.5776,2.033096 11.1755,4.263049 16.7437,6.691065 2.7841,1.214008 5.5609,2.477675 8.324,3.790983 2.7631,1.313318 5.5123,2.676675 8.2419,4.089673 2.7296,1.412996 5.4398,2.875813 8.1235,4.388879 2.6837,1.513058 5.3411,3.07613 7.9665,4.689636 2.6253,1.613518 5.2185,3.277596 7.7731,4.991944 2.5546,1.714336 5.0708,3.479221 7.5422,5.294767 2.4714,1.815556 4.8983,3.682512 7.274,5.599658 2.3757,1.917136 4.7004,3.88439 6.968,5.903516 2.2677,2.019116 4.4784,4.089514 6.6255,6.21099 2.1471,2.121476 4.231,4.294261 6.2451,6.518465 2.0141,2.224216 3.9583,4.500165 5.827,6.827491 1.8687,2.327334 3.6615,4.706196 5.3723,7.137032 1.7108,2.430824 3.3398,4.913402 4.8803,7.448122 1.5405,2.53472 2.9924,5.1223 4.3501,7.76129 1.3578,2.63896 2.6212,5.32979 3.7838,8.0734 1.1625,2.74363 2.2247,5.53948 3.1796,8.38812 0.955,2.84866 1.8029,5.75083 2.5378,8.7049 0.7348,2.95405 1.3564,5.96078 1.8588,9.02064 0.5023,3.05984 0.8852,6.17243 1.1426,9.33844 0.2574,3.16603 0.3891,6.38524 0.3891,9.65781 0,2.64398 -0.092,5.26575 -0.2723,7.86309 -0.1807,2.59734 -0.4505,5.17045 -0.8067,7.71942 -0.3562,2.549 -0.799,5.07372 -1.3255,7.57267 -0.5264,2.49895 -1.1364,4.97201 -1.8278,7.41918 -0.6913,2.4472 -1.464,4.86835 -2.3151,7.26209 -0.851,2.39374 -1.7808,4.76022 -2.7864,7.09879 -1.0055,2.33859 -2.0869,4.64913 -3.2416,6.93085 -1.1547,2.28171 -2.3829,4.53559 -3.6815,6.75876 -1.2987,2.22317 -2.6678,4.41604 -4.1051,6.57892 -1.4374,2.1629 -2.9429,4.29507 -4.5134,6.396 -1.5708,2.10092 -3.2068,4.17063 -4.9057,6.20789 -1.6989,2.03725 -3.461,4.04272 -5.2829,6.01462 -1.8218,1.97187 -3.7036,3.91034 -5.643,5.81514 -1.9395,1.90482 -3.9364,3.77603 -5.9883,5.61207 -2.0519,1.83602 -4.159,3.63722 -6.318,5.40277 -2.159,1.76554 -4.3702,3.49546 -6.6311,5.18883 -2.2609,1.69338 -4.5712,3.35075 -6.9288,4.97024 -2.3575,1.61947 -4.762,3.20103 -7.2109,4.74493 -2.4489,1.54388 -4.9422,3.04991 -7.4771,4.51652 -2.535,1.4666 -5.112,2.89429 -7.7276,4.28191 -2.6159,1.38759 -5.271,2.73521 -7.9624,4.04213 -2.6913,1.30689 -5.4196,2.57318 -8.1814,3.7977 -2.7617,1.22451 -5.5576,2.40719 -8.3845,3.54758 -2.8268,1.14041 -5.6848,2.23823 -8.5715,3.29283 -5.7734,2.10919 -11.6612,4.04491 -17.6424,5.80068 -5.9811,1.75575 -12.0556,3.33193 -18.2025,4.72064 -6.1468,1.38871 -12.3665,2.59073 -18.6371,3.59874 -6.2705,1.00802 -12.5924,1.82181 -18.9446,2.43552 -1.5475,0.14952 -3.1031,0.25204 -4.641,0.29558 -1.5379,0.0435 -3.0579,0.0278 -4.5336,-0.0579 -1.4757,-0.0857 -2.9074,-0.24186 -4.2685,-0.48008 -1.361,-0.23822 -2.6514,-0.55803 -3.8452,-0.97203 -1.1938,-0.41401 -2.2913,-0.92174 -3.2654,-1.53479 -0.9742,-0.61306 -1.8251,-1.33194 -2.527,-2.16731 -0.351,-0.41769 -0.665,-0.86441 -0.938,-1.34204 -0.2731,-0.47763 -0.5053,-0.98604 -0.694,-1.52652 -0.1886,-0.54048 -0.3334,-1.11303 -0.4309,-1.71927 -0.098,-0.60624 -0.1484,-1.24591 -0.1484,-1.92082 V 120.05159 c 5.0413,-0.14578 12.381,-0.31123 24.799,-0.71055 7.9525,-0.25573 16.1639,-0.56287 23.0276,-0.92139 3.4319,-0.17928 6.5268,-0.3719 9.0842,-0.57671 2.5574,-0.2048 4.5772,-0.42245 5.8585,-0.65268 1.1658,-0.20944 2.1134,-0.5467 2.8717,-0.98082 0.7584,-0.43411 1.3278,-0.96518 1.7363,-1.56321 0.1917,-0.28058 0.3275,-0.66974 0.4124,-1.13636 0.085,-0.46662 0.1188,-1.01067 0.1065,-1.59835 -0.025,-1.17539 -0.234,-2.52775 -0.5907,-3.79771 -0.1783,-0.63498 -0.3937,-1.24956 -0.6408,-1.81074 -0.2471,-0.56118 -0.5261,-1.06947 -0.8325,-1.4919 -0.3064,-0.42243 -0.6402,-0.75898 -0.9963,-0.97771 -0.3562,-0.21872 -0.7348,-0.31866 -1.1312,-0.26872 -1.5857,0.19977 -18.4206,0.9815 -35.2754,1.7079 -13.5386,0.58349 -22.7589,0.92201 -28.4293,1.10226 V 23.243026 c 0,-0.956648 0.052,-1.852364 0.1499,-2.690792 0.098,-0.838428 0.2431,-1.619752 0.43,-2.34766 0.1868,-0.72791 0.4159,-1.402694 0.6816,-2.027784 0.2657,-0.625098 0.5684,-1.200655 0.9033,-1.730643 0.6697,-1.059958 1.4678,-1.937129 2.3559,-2.662887 0.8882,-0.725758 1.866,-1.300184 2.8949,-1.753381 1.029,-0.4531996 2.1093,-0.7855619 3.2014,-1.0278445 1.0921,-0.2422826 2.1965,-0.3942978 3.2742,-0.4873088 2.1554,-0.1860226 4.2039,-0.1352449 5.8358,-0.094051 z m -56.3387,5.168e-4 c 0.01,-1.29e-4 0.012,1.292e-4 0.017,0 1.624,-0.040985 3.6585,-0.090251 5.7996,0.093018 0.01,5.82e-4 0.013,4.468e-4 0.02,0.00103 0.2512,0.021682 0.5096,0.085197 0.7632,0.1136882 -25.7321,5.1517634 -48.9898,12.6293484 -73.4239,30.1738684 -4.0433,2.903232 -8.2449,3.012397 -13.3279,2.064991 -8.9628,-0.761122 -16.9779,-2.267803 -25.4811,-3.730005 1.5441,-0.77007 3.0811,-1.561106 4.6348,-2.299601 2.7631,-1.313306 5.5395,-2.576981 8.3236,-3.790983 0.01,-0.0042 0.019,-0.0077 0.029,-0.01189 5.5491,-2.418962 11.1274,-4.641566 16.6858,-6.668327 0.01,-0.0035 0.019,-0.0073 0.029,-0.01085 0.011,-0.0039 0.021,-0.007 0.032,-0.01085 5.5563,-2.024593 11.0924,-3.854395 16.5592,-5.490104 0.01,-0.0031 0.021,-0.0067 0.032,-0.0098 0.011,-0.0034 0.022,-0.0059 0.034,-0.0093 5.4648,-1.633727 10.8602,-3.074144 16.137,-4.322217 0.011,-0.0025 0.022,-0.0057 0.033,-0.0083 0.011,-0.0026 0.022,-0.0046 0.033,-0.0072 5.275,-1.246326 10.4314,-2.300344 15.4197,-3.164148 0.011,-0.0018 0.022,-0.0044 0.032,-0.0062 0.01,-0.0018 0.02,-0.0028 0.031,-0.0047 4.9869,-0.862184 9.8053,-1.5342395 14.4069,-2.0169314 0.01,-0.00102 0.02,-0.00259 0.03,-0.00362 0.01,-9.612e-4 0.018,-0.00111 0.027,-0.00207 4.6007,-0.4812495 8.9842,-0.7739003 13.1005,-0.8784994 0.01,-2.079e-4 0.017,-8.27e-4 0.025,-0.00103 z m 9.0341,2.7124956 c -13.5936,6.880119 -32.6677,30.630562 -33.5494,31.512289 -0.8818,0.881707 -2.6888,3.749565 -11.6959,3.076298 -7.5111,-0.56144 -15.0144,-1.172782 -22.4984,-2.041219 -8.2787,-0.840597 -6.4665,-1.926523 -3.1822,-4.290694 26.8564,-19.332303 53.1822,-25.84339 70.9259,-28.256674 z m 6.2621,0.751892 c 0,0.0012 0,0.0029 0,0.0041 0.8448,0.70759 1.6173,1.537318 2.2598,2.553332 8e-4,0.0012 0,0.0019 0,0.0031 1e-4,1.2e-4 -10e-5,3.96e-4 0,5.16e-4 0.3347,0.529886 0.6376,1.105176 0.9033,1.730127 0,1.47e-4 -10e-5,3.7e-4 0,5.17e-4 0.2656,0.624969 0.4943,1.299524 0.6811,2.027267 0,1.66e-4 -10e-5,3.5e-4 0,5.16e-4 0.1867,0.727776 0.3317,1.508894 0.4299,2.347144 0,1.78e-4 0,3.38e-4 0,5.17e-4 0.098,0.838289 0.1499,1.73381 0.1499,2.690275 v 5.16e-4 24.740609 c -14.8075,-0.104523 -21.9565,-0.383932 -33.6073,-1.00769 -6.1556,-0.32955 -9.1999,-1.118969 -5.0947,-6.693649 5.8093,-7.889268 15.5871,-19.922355 34.2712,-28.397233 z M 1235.2336,39.0679 c 8.8457,1.681883 17.6577,3.201282 26.6811,4.43022 11.3441,1.576326 1.9883,6.896039 0.1814,8.735901 -15.5797,15.32615 -30.7031,42.983138 -32.8693,46.735132 -2.1662,3.752017 -4.5756,7.769097 -11.0619,6.386177 -5.7585,-1.22782 -29.7611,-6.970488 -49.2745,-13.003344 0.7579,-0.996096 1.4721,-2.020913 2.2572,-2.998784 10e-5,-1.02e-4 0,-4.15e-4 0,-5.16e-4 1.8687,-2.327224 3.8136,-4.602851 5.8276,-6.826974 10e-5,-9.2e-5 -10e-5,-4.25e-4 0,-5.17e-4 2.014,-2.224113 4.0976,-4.396556 6.2446,-6.517948 2.1471,-2.121472 4.3578,-4.191882 6.6254,-6.21099 2.2676,-2.019122 4.5923,-3.986901 6.9681,-5.904033 2.3757,-1.917142 4.8026,-3.783589 7.2739,-5.599141 2.4714,-1.815546 4.9876,-3.580432 7.5422,-5.294768 2.5546,-1.714342 5.1478,-3.378431 7.7732,-4.991943 2.6254,-1.613502 5.2832,-3.176584 7.9669,-4.689636 2.5982,-1.464828 5.2227,-2.877816 7.8641,-4.248836 z m 45.2557,6.786149 c 0.5287,0.01534 1.0822,0.04723 1.6619,0.09767 l 27.5952,2.401404 c 5.8941,0.512927 4.3523,4.110833 3.4484,6.035807 -7.6608,16.314202 -13.8443,32.505672 -17.2806,48.46784 -3.4504,16.0275 -4.4891,13.70661 -18.2082,11.72073 l -38.6685,-5.59707 c -5.8877,-0.8523 -8.6002,-3.33809 -7.0879,-6.74119 8.7229,-19.629298 20.1726,-36.622367 36.1797,-51.144682 1.9099,-1.792917 4.1127,-5.003904 10.8464,-5.237924 0.4809,-0.01673 0.9849,-0.0179 1.5136,-0.0026 z m 45.5559,3.841109 c 9.5241,0.271173 22.5531,1.00322 38.4152,1.248502 v 53.41793 c -18.5587,-0.031 -37.3432,-0.51337 -56.779,-2.29857 -9.0102,-0.8276 -8.4769,-1.26365 -6.3572,-8.40207 6.0667,-20.43073 6.4479,-22.420924 15.1355,-39.364006 1.8249,-3.558914 6.5934,-4.686986 9.5855,-4.601786 z M 1166.8435,95.0712 c 14.9677,3.731565 48.0477,12.7101 50.1995,13.49995 2.6641,0.9779 5.903,2.88382 3.7796,9.43612 -2.1232,6.55227 -6.828,26.98985 -6.828,47.02142 0,20.03157 4.7048,40.46864 6.828,47.0209 2.1234,6.55228 -1.1155,8.45821 -3.7796,9.43612 -2.1256,0.7802 -34.4425,9.55443 -49.6641,13.36714 -1.1456,-1.57744 -2.2926,-3.15433 -3.3636,-4.76612 -10e-5,-1.2e-4 0,-3.9e-4 0,-5.2e-4 -1.4374,-2.16276 -2.8067,-4.35588 -4.1052,-6.57892 -10e-5,-1.3e-4 10e-5,-3.9e-4 0,-5.2e-4 -1.2986,-2.22304 -2.5268,-4.47615 -3.6815,-6.75773 0,-1.4e-4 10e-5,-3.7e-4 0,-5.1e-4 -1.1546,-2.28158 -2.2362,-4.59189 -3.2416,-6.93033 -10e-5,-1.5e-4 10e-5,-3.7e-4 0,-5.2e-4 -1.0054,-2.33843 -1.9354,-4.70469 -2.7864,-7.09827 -10e-5,-1.6e-4 0,-3.6e-4 0,-5.2e-4 -0.8511,-2.39358 -1.6237,-4.81453 -2.3151,-7.26157 -1e-4,-1.6e-4 0,-3.6e-4 0,-5.2e-4 -0.6914,-2.44701 -1.3014,-4.9204 -1.8278,-7.41918 0,-1.7e-4 0,-3.5e-4 0,-5.2e-4 -0.5264,-2.49878 -0.9693,-5.0228 -1.3255,-7.57163 0,-1.7e-4 0,-3.5e-4 0,-5.2e-4 -0.3562,-2.54881 -0.6259,-5.12226 -0.8067,-7.71942 0,-1.7e-4 0,-3.5e-4 0,-5.2e-4 -0.1807,-2.59734 -0.2723,-5.21859 -0.2723,-7.86257 0,-3.2724 0.1317,-6.49143 0.3891,-9.65729 0,-1.7e-4 0,-3.4e-4 0,-5.2e-4 0.2574,-3.16584 0.6402,-6.27875 1.1426,-9.33844 0,-1.7e-4 0,-3.5e-4 0,-5.2e-4 0.5023,-3.05969 1.1246,-6.06621 1.8593,-9.02012 0,-1.6e-4 0,-3.6e-4 0,-5.2e-4 0.7349,-2.9539 1.583,-5.85535 2.5378,-8.70386 10e-5,-1.5e-4 0,-3.6e-4 0,-5.2e-4 0.955,-2.84849 2.0166,-5.64411 3.1792,-8.3876 0,-1.4e-4 -10e-5,-3.7e-4 0,-5.2e-4 1.1624,-2.74347 2.4261,-5.43456 3.7837,-8.0734 10e-5,-1.4e-4 -1e-4,-3.9e-4 0,-5.2e-4 1.3577,-2.63886 2.8103,-5.22566 4.3506,-7.76025 10e-5,-1.2e-4 0,-4e-4 0,-5.2e-4 1.5405,-2.53459 3.1691,-5.016894 4.8799,-7.447606 0,-1.12e-4 -10e-5,-4.04e-4 0,-5.16e-4 0.34,-0.483203 0.7216,-0.93942 1.0681,-1.418518 z m 65.595,16.95297 c 0.652,-0.0345 1.3572,-0.0314 2.1218,0.006 0.8739,0.0433 1.8251,0.132 2.8629,0.26355 8.3026,1.0524 34.9863,5.04982 42.6888,6.34225 9.3147,1.5629 12.2127,1.90052 11.1337,10.96212 -1.0789,9.0616 -2.5104,22.36436 -2.1135,35.42988 -0.3969,13.06553 1.0346,26.36877 2.1135,35.4304 1.079,9.06159 -1.819,9.39819 -11.1337,10.96108 -7.7025,1.29243 -34.3862,5.28986 -42.6888,6.34225 -8.3027,1.05241 -11.0704,-0.62214 -12.9165,-6.58978 -1.8462,-5.96763 -6.9139,-27.56851 -6.9138,-46.14395 -1e-4,-18.57544 5.0676,-40.1758 6.9138,-46.14344 1.4135,-4.56896 3.3674,-6.62165 7.9318,-6.86056 z m 70.6153,8.99997 61.4066,2.9099 v 82.18878 c -26.9887,0.43105 -53.2043,2.35337 -57.8161,2.77761 -5.1147,0.4705 -10.5386,0.0597 -11.8624,-5.37332 -0.8301,-6.27837 -2.3792,-20.21644 -2.3791,-38.49842 -10e-5,-18.28202 1.549,-32.22055 2.3791,-38.49895 1.0135,-4.15961 4.4305,-5.37534 8.2719,-5.5056 z m 202.5892,8.30802 c -3.4638,0.0307 -6.8664,0.15428 -10.0687,0.40307 -1.6012,0.12441 -3.1527,0.28005 -4.6364,0.47129 -1.4836,0.19125 -2.8999,0.41789 -4.2312,0.6842 -1.3315,0.2663 -2.5779,0.57231 -3.7223,0.92191 -1.1444,0.34958 -2.1868,0.74282 -3.1094,1.1839 -0.9225,0.44109 -1.7256,0.92994 -2.3915,1.47071 -0.3331,0.27041 -0.6317,0.55373 -0.894,0.8506 -0.2624,0.29686 -0.4886,0.60737 -0.676,0.93172 -0.1428,0.24725 -0.2423,0.50663 -0.3033,0.77618 -0.061,0.26957 -0.083,0.54935 -0.073,0.8382 0.02,0.57768 0.1721,1.19067 0.4134,1.82728 0.2413,0.63657 0.5719,1.29662 0.9493,1.96783 0.3774,0.67122 0.8014,1.35399 1.2299,2.03554 0.4285,0.68155 0.8616,1.36224 1.2563,2.02985 0.3948,0.6676 0.7517,1.32193 1.0278,1.9513 0.2761,0.62937 0.4722,1.23355 0.5442,1.80041 0.036,0.28342 0.041,0.55789 0.011,0.82114 -0.031,0.26323 -0.097,0.51548 -0.2051,0.75551 -0.2468,0.54857 -0.5807,1.03552 -0.9896,1.46606 -0.4089,0.43052 -0.8929,0.80447 -1.4402,1.12809 -0.5474,0.32363 -1.1579,0.59686 -1.8201,0.82476 -0.6622,0.22789 -1.3763,0.41063 -2.1296,0.55397 -0.7533,0.14334 -1.5461,0.24729 -2.3668,0.31729 -0.8207,0.07 -1.6692,0.10569 -2.5337,0.11369 -1.729,0.0155 -3.5219,-0.0822 -5.2839,-0.24856 -1.762,-0.16637 -3.4932,-0.4016 -5.0989,-0.66043 -1.6056,-0.25882 -3.0857,-0.54164 -4.3455,-0.80357 -2.5194,-0.52384 -4.1584,-0.96428 -4.1584,-0.96428 0,0 0.6544,0.39011 1.7974,0.9741 1.1429,0.58399 2.7748,1.36211 4.7299,2.13786 0.9776,0.38787 2.0358,0.77515 3.1543,1.13739 1.1186,0.36228 2.2974,0.69939 3.5156,0.98702 1.2182,0.28764 2.4758,0.52591 3.7522,0.68989 1.2764,0.16391 2.5716,0.25394 3.8649,0.24494 0.9973,-0.007 2.0614,-0.0606 3.176,-0.15089 1.1146,-0.0903 2.2796,-0.2168 3.4778,-0.36897 2.3965,-0.30438 4.9271,-0.7109 7.4569,-1.13275 2.5298,-0.42185 5.0591,-0.85936 7.4533,-1.22525 2.3942,-0.36588 4.6536,-0.66037 6.6436,-0.79685 2.3642,-0.16216 4.8252,-0.2515 7.3365,-0.2806 2.5111,-0.0291 5.0726,0.002 7.6372,0.0806 2.5648,0.0785 5.133,0.20439 7.658,0.36484 2.5248,0.16045 5.0067,0.35514 7.3985,0.57206 4.7834,0.43383 9.2077,0.95543 12.8984,1.46192 3.6907,0.5065 6.6485,0.99815 8.4997,1.37305 1.0512,-0.36538 2.0695,-0.79095 3.0479,-1.26918 0.9784,-0.47823 1.9172,-1.00893 2.8092,-1.58595 0.8918,-0.57702 1.737,-1.20018 2.529,-1.8619 0.792,-0.66172 1.5311,-1.3621 2.2097,-2.09445 0.6785,-0.73231 1.2969,-1.49676 1.8484,-2.28564 0.5515,-0.7889 1.036,-1.60262 1.447,-2.43396 0.411,-0.83136 0.7482,-1.68016 1.0051,-2.5399 0.2569,-0.85974 0.434,-1.73046 0.523,-2.60449 -2.9483,0.34147 -8.3496,1.08817 -14.8462,1.91823 -3.2483,0.41502 -6.7708,0.85122 -10.3973,1.26762 -3.6265,0.41639 -7.3573,0.81305 -11.0225,1.15032 -3.6654,0.33725 -7.265,0.61512 -10.6299,0.79271 -3.3647,0.17756 -6.495,0.25536 -9.2201,0.19276 -1.3625,-0.0313 -2.6237,-0.0977 -3.7626,-0.20413 -1.1389,-0.10641 -2.1557,-0.25331 -3.0287,-0.44493 -0.873,-0.19162 -1.6022,-0.42832 -2.1668,-0.7152 -0.2823,-0.14345 -0.5236,-0.29904 -0.7209,-0.46819 -0.1972,-0.16915 -0.3504,-0.35166 -0.4573,-0.54777 -0.1066,-0.19611 -0.1626,-0.39317 -0.1726,-0.59066 -0.01,-0.19749 0.029,-0.39539 0.1121,-0.59376 0.083,-0.19839 0.21,-0.39705 0.3783,-0.59583 0.1683,-0.1988 0.3779,-0.39763 0.6258,-0.59635 0.4957,-0.39743 1.1445,-0.79432 1.9218,-1.18856 0.7774,-0.39423 1.6832,-0.7859 2.6934,-1.17305 1.0102,-0.38716 2.1244,-0.76998 3.3187,-1.14619 1.1941,-0.37619 2.4682,-0.74605 3.7977,-1.10742 2.6589,-0.72276 5.54,-1.41188 8.4475,-2.05207 2.9076,-0.6402 5.8423,-1.23141 8.6083,-1.75803 2.7658,-0.52666 5.3633,-0.98889 7.5974,-1.37098 4.4682,-0.76419 7.4828,-1.2082 7.4828,-1.2082 -0.534,-0.067 -2.1491,-0.26057 -4.5496,-0.51056 -2.4005,-0.24998 -5.5865,-0.55633 -9.2625,-0.84956 -3.6758,-0.29322 -7.8422,-0.57324 -12.2023,-0.76998 -2.1802,-0.0984 -4.4091,-0.17566 -6.6492,-0.22376 -2.2404,-0.048 -4.4924,-0.0667 -6.719,-0.047 z m -315.819,4.41523 v 36.31045 c 0,16.72424 -0.2045,18.57375 -10.389,20.19153 h -16.459 c -1.5034,0 -2.6417,0.60298 -2.6417,1.37873 v 11.98376 h 22.4793 c 16.3109,0 22.4095,-8.51035 22.4095,-20.49229 v -49.37218 z m 66.4213,0 c -1.9825,0 -4.7863,1.36739 -6.0126,4.14962 l -26.6247,63.01372 c -0.1478,0.31932 -0.8156,2.70113 2.4422,2.70113 h 13.4819 l 4.5429,-12.80335 h 12.1703 12.1703 l 4.5429,12.80335 h 13.4824 c 3.2577,0 2.5895,-2.38181 2.4417,-2.70113 l -26.6242,-63.01372 c -1.2263,-2.78223 -4.0306,-4.14962 -6.0131,-4.14962 z m 173.9687,9.56686 v 5.2e-4 c -0.7865,-1e-4 -1.5591,0.33195 -2.2402,0.96273 -0.681,0.63071 -1.2465,1.53791 -1.6397,2.63033 -0.3931,1.09244 -0.6,2.33168 -0.5999,3.59306 -1e-4,1.26138 0.2068,2.50062 0.5999,3.59306 0.3932,1.09243 0.9587,1.99963 1.6397,2.63033 0.6811,0.63078 1.4537,0.96283 2.2402,0.96274 0.6073,-0.002 1.2081,-0.20173 1.7658,-0.58757 0.5575,-0.38567 1.0603,-0.94922 1.4779,-1.65622 v 0.13074 c 0.5796,-0.39946 1.3621,-0.74909 2.31,-1.05782 0.9477,-0.30873 2.061,-0.57648 3.3016,-0.81235 1.2404,-0.23589 2.6087,-0.43975 4.0664,-0.62064 1.4577,-0.18087 3.0051,-0.33893 4.6044,-0.48266 3.1985,-0.28744 6.6049,-0.51834 9.9167,-0.76429 3.3116,-0.24595 6.5288,-0.50697 9.3493,-0.85421 -2.888,-0.26943 -6.1148,-0.50468 -9.4082,-0.7674 -3.2937,-0.2627 -6.6548,-0.55294 -9.8119,-0.93172 -1.5785,-0.1894 -3.1063,-0.4009 -4.549,-0.64234 -1.4428,-0.24144 -2.8009,-0.51283 -4.0401,-0.82166 -1.2392,-0.30881 -2.3597,-0.6554 -3.3274,-1.04696 -0.484,-0.19578 -0.9299,-0.40285 -1.3333,-0.62218 -0.4034,-0.21935 -0.7641,-0.45074 -1.0785,-0.69557 v 0.0899 c -0.4183,-0.70461 -0.9215,-1.26563 -1.479,-1.649 -0.5576,-0.38331 -1.158,-0.58092 -1.7647,-0.58084 z m 43.2857,1.26142 c -1.1121,-6e-5 -2.2046,0.20689 -3.1677,0.59996 -0.9631,0.3932 -1.7628,0.95873 -2.3188,1.6397 -0.5561,0.68091 -0.8489,1.45339 -0.849,2.23965 0,0.78626 0.2926,1.55871 0.8485,2.23966 0.556,0.68121 1.356,1.24692 2.3193,1.64021 0.9631,0.3931 2.0556,0.60003 3.1677,0.59996 0.4744,6e-5 0.9473,-0.0376 1.4098,-0.11213 0.4624,-0.0748 0.9116,-0.18608 1.3389,-0.33177 0.4275,-0.14556 0.8305,-0.32463 1.2015,-0.53381 0.3708,-0.20904 0.7073,-0.44687 1.003,-0.709 0.2957,-0.26232 0.5488,-0.54732 0.7545,-0.84956 0.2058,-0.30217 0.3631,-0.61974 0.4687,-0.94672 0.012,-0.0362 0.023,-0.0726 0.033,-0.10903 0.01,-0.0366 0.02,-0.0733 0.029,-0.11008 0.01,-0.0366 0.018,-0.0733 0.025,-0.11007 0.01,-0.0368 0.015,-0.0737 0.022,-0.11058 0.01,-0.037 0.012,-0.074 0.018,-0.11111 0.01,-0.037 0.01,-0.074 0.014,-0.1111 0,-0.0372 0.01,-0.0744 0.01,-0.11162 0,-0.0372 3e-4,-0.0744 0.01,-0.11162 v -0.11163 c -10e-5,-0.78626 -0.2929,-1.55874 -0.849,-2.23965 -0.556,-0.68097 -1.3557,-1.2465 -2.3187,-1.6397 -0.963,-0.39301 -2.0554,-0.59996 -3.1673,-0.59996 z m -217.2544,12.68915 8.7162,20.32331 h -17.4325 z m 253.8625,6.71845 c -3.4637,0.0307 -6.8663,0.15427 -10.0686,0.40308 -1.6012,0.1244 -3.1527,0.28004 -4.6364,0.47129 -1.4837,0.19125 -2.8999,0.41789 -4.2313,0.68419 -1.3314,0.26632 -2.5784,0.57233 -3.7228,0.92191 -1.1443,0.3496 -2.1862,0.74282 -3.1088,1.18391 -0.9226,0.44108 -1.7256,0.92991 -2.3916,1.47071 -0.333,0.2704 -0.6316,0.55373 -0.894,0.85059 -0.2624,0.29688 -0.4886,0.60736 -0.6759,0.93173 -0.1428,0.24725 -0.2424,0.50661 -0.3034,0.77618 -0.061,0.26956 -0.083,0.54936 -0.073,0.83819 0.02,0.57768 0.1722,1.19069 0.4134,1.82728 0.2413,0.63659 0.572,1.29662 0.9493,1.96784 0.3774,0.67121 0.8014,1.35398 1.2299,2.03553 0.4286,0.68155 0.8614,1.36225 1.2562,2.02985 0.3948,0.66761 0.7518,1.32192 1.0279,1.95131 0.2762,0.62935 0.4711,1.23355 0.5441,1.8004 0.036,0.28343 0.041,0.55789 0.011,0.82114 -0.031,0.26325 -0.097,0.51548 -0.2052,0.75551 -0.2467,0.5486 -0.5807,1.03554 -0.9896,1.46606 -0.4089,0.43053 -0.8928,0.80447 -1.4402,1.1281 -0.5474,0.32362 -1.158,0.59686 -1.82,0.82475 -0.6622,0.2279 -1.3763,0.41064 -2.1296,0.55397 -0.7533,0.14335 -1.5461,0.2473 -2.3668,0.3173 -0.8207,0.07 -1.6692,0.10569 -2.5337,0.11369 -1.729,0.0155 -3.5219,-0.0822 -5.2839,-0.24857 -1.762,-0.16636 -3.4934,-0.4016 -5.0989,-0.66042 -1.6057,-0.25883 -3.0857,-0.54165 -4.3455,-0.80357 -2.5197,-0.52384 -4.1584,-0.96428 -4.1584,-0.96428 0,0 0.6543,0.39011 1.7973,0.9741 1.143,0.58399 2.7749,1.3621 4.7299,2.13785 0.9776,0.38788 2.0358,0.77513 3.1544,1.1374 1.1185,0.36227 2.2974,0.69938 3.5155,0.98702 1.2182,0.28764 2.4759,0.5259 3.7522,0.68988 1.2765,0.16395 2.5716,0.25395 3.8649,0.24495 0.9973,-0.007 2.0615,-0.0606 3.1761,-0.1509 1.1145,-0.0903 2.2795,-0.21678 3.4778,-0.36897 2.3965,-0.30437 4.9271,-0.71089 7.4569,-1.13275 2.5298,-0.42184 5.059,-0.85936 7.4533,-1.22524 2.3942,-0.36589 4.6536,-0.66041 6.6435,-0.79685 2.3644,-0.16216 4.8253,-0.25151 7.3365,-0.28061 2.5112,-0.0291 5.0725,0.002 7.6373,0.0806 2.5646,0.0785 5.133,0.20439 7.6579,0.36483 2.5249,0.16045 5.0067,0.35514 7.3985,0.57206 4.7835,0.43384 9.2078,0.95542 12.8984,1.46193 3.6908,0.50649 6.6485,0.99816 8.4998,1.37304 1.0513,-0.36538 2.0695,-0.79094 3.0479,-1.26917 0.9784,-0.47825 1.9171,-1.00894 2.8091,-1.58595 0.892,-0.57703 1.7371,-1.2002 2.529,-1.8619 0.7921,-0.66174 1.5312,-1.3621 2.2097,-2.09445 0.6786,-0.73235 1.297,-1.49676 1.8485,-2.28565 0.5515,-0.78889 1.0359,-1.6026 1.4469,-2.43396 0.411,-0.83136 0.7482,-1.68067 1.0051,-2.54041 0.257,-0.85974 0.434,-1.72993 0.523,-2.60398 -2.9483,0.34149 -8.3495,1.08818 -14.8461,1.91823 -3.2484,0.41503 -6.7709,0.85123 -10.3973,1.26762 -3.6265,0.41641 -7.3573,0.81307 -11.0226,1.15032 -3.6653,0.33727 -7.2651,0.61511 -10.6298,0.79272 -3.3649,0.17765 -6.4952,0.25535 -9.2202,0.19275 -1.3625,-0.0313 -2.6235,-0.0977 -3.7625,-0.20412 -1.139,-0.10642 -2.1558,-0.25332 -3.0288,-0.44493 -0.8729,-0.19163 -1.6022,-0.42832 -2.1668,-0.71521 -0.2822,-0.14343 -0.5237,-0.29904 -0.7208,-0.46819 -0.1973,-0.16911 -0.3505,-0.35165 -0.4574,-0.54777 -0.1066,-0.1961 -0.1626,-0.39317 -0.1726,-0.59066 -0.01,-0.19748 0.029,-0.39538 0.1122,-0.59376 0.083,-0.19838 0.2099,-0.39703 0.3782,-0.59583 0.1684,-0.19879 0.378,-0.39763 0.6258,-0.59634 0.4958,-0.39744 1.1445,-0.79433 1.9219,-1.18856 0.7773,-0.39424 1.6834,-0.7859 2.6933,-1.17306 1.0101,-0.38715 2.1245,-0.76998 3.3187,-1.14618 1.1943,-0.37621 2.4682,-0.74605 3.7977,-1.10743 2.6591,-0.72275 5.54,-1.41187 8.4476,-2.05207 2.9075,-0.64019 5.8424,-1.23139 8.6082,-1.75803 2.766,-0.52664 5.3634,-0.98888 7.5975,-1.37098 4.4682,-0.76417 7.4827,-1.20819 7.4827,-1.20819 -0.534,-0.067 -2.149,-0.26058 -4.5496,-0.51056 -2.4004,-0.24999 -5.5866,-0.55634 -9.2624,-0.84956 -3.676,-0.29324 -7.8422,-0.57326 -12.2024,-0.76998 -2.1801,-0.0984 -4.4088,-0.17576 -6.6492,-0.22376 -2.2404,-0.048 -4.4922,-0.0668 -6.719,-0.047 z m -75.429,13.98261 c -0.7864,-1e-4 -1.559,0.33195 -2.2401,0.96273 -0.681,0.63072 -1.2466,1.5379 -1.6397,2.63033 -0.3931,1.09245 -0.6001,2.33168 -0.6,3.59307 -10e-5,1.26136 0.2069,2.50061 0.6,3.59306 0.3931,1.09243 0.9587,1.99962 1.6397,2.63033 0.6811,0.63078 1.4537,0.96283 2.2401,0.96273 0.6074,-0.002 1.2081,-0.20172 1.7658,-0.58756 0.5575,-0.3857 1.0604,-0.9492 1.478,-1.65623 v 0.13074 c 0.5796,-0.39945 1.3621,-0.74907 2.3099,-1.05782 0.9479,-0.30871 2.0611,-0.57646 3.3016,-0.81235 1.2406,-0.23589 2.6087,-0.43975 4.0664,-0.62063 1.4577,-0.18089 3.0051,-0.33893 4.6044,-0.48266 3.1986,-0.28746 6.605,-0.51838 9.9167,-0.76429 3.3118,-0.24595 6.5288,-0.50697 9.3493,-0.85422 -2.888,-0.26941 -6.1145,-0.50467 -9.4082,-0.76739 -3.2937,-0.26272 -6.6546,-0.55293 -9.8118,-0.93173 -1.5786,-0.18939 -3.1063,-0.4009 -4.5491,-0.64234 -1.4428,-0.24142 -2.8009,-0.51282 -4.04,-0.82165 -1.2393,-0.30883 -2.3596,-0.6554 -3.3275,-1.04697 -0.4839,-0.19577 -0.9299,-0.40283 -1.3332,-0.62218 -0.4034,-0.21935 -0.7642,-0.45075 -1.0785,-0.69556 v 0.0904 c -0.4183,-0.70461 -0.9215,-1.26563 -1.479,-1.649 -0.5577,-0.38331 -1.1581,-0.58092 -1.7648,-0.58084 z m 43.2858,1.26091 c -1.1121,-6e-5 -2.2047,0.20686 -3.1678,0.59996 -0.963,0.3932 -1.7627,0.95872 -2.3187,1.63969 -0.5561,0.68092 -0.8489,1.45337 -0.8491,2.23966 0,0.78626 0.2926,1.5587 0.8486,2.23966 0.556,0.68121 1.3559,1.24692 2.3192,1.64021 0.9631,0.3931 2.0557,0.60002 3.1678,0.59996 0.4743,5e-5 0.9472,-0.0376 1.4097,-0.11214 0.4625,-0.0748 0.9116,-0.18608 1.3389,-0.33176 0.4275,-0.14557 0.8306,-0.32463 1.2015,-0.53382 0.3708,-0.20904 0.7073,-0.44687 1.0031,-0.709 0.2956,-0.26232 0.5487,-0.5473 0.7544,-0.84956 0.2059,-0.30217 0.3631,-0.61973 0.4687,-0.94671 0.012,-0.0363 0.023,-0.0726 0.033,-0.10904 0.011,-0.0366 0.02,-0.0733 0.03,-0.11007 0.01,-0.0366 0.017,-0.0733 0.025,-0.11007 0.01,-0.0368 0.015,-0.0737 0.022,-0.11059 0.01,-0.037 0.012,-0.074 0.018,-0.1111 0.01,-0.037 0.01,-0.074 0.013,-0.11111 0,-0.0372 0.01,-0.0744 0.01,-0.11162 0,-0.0372 -2e-4,-0.0744 0.01,-0.11162 v -0.11162 c -10e-5,-0.78629 -0.2929,-1.55874 -0.849,-2.23966 -0.556,-0.68078 -1.3557,-1.24612 -2.3187,-1.63917 -0.9629,-0.39322 -2.055,-0.60032 -3.1667,-0.60048 z m 36.6081,19.40811 c -3.4639,0.0307 -6.8663,0.15427 -10.0687,0.40308 -1.6012,0.1244 -3.1527,0.28004 -4.6364,0.47129 -1.4837,0.19125 -2.8999,0.41788 -4.2312,0.6842 -1.3315,0.26628 -2.5779,0.57231 -3.7223,0.9219 -1.1444,0.3496 -2.1868,0.74282 -3.1094,1.18391 -0.9226,0.44109 -1.7255,0.92991 -2.3916,1.47071 -0.333,0.2704 -0.6316,0.55372 -0.894,0.8506 -0.2623,0.29684 -0.4885,0.60735 -0.6759,0.93172 -0.1428,0.24725 -0.2423,0.50662 -0.3033,0.77618 -0.061,0.26957 -0.083,0.54935 -0.073,0.83819 0.02,0.5777 0.1721,1.19068 0.4134,1.82728 0.2413,0.6366 0.5719,1.29662 0.9493,1.96784 0.3774,0.67122 0.8013,1.354 1.2299,2.03553 0.4285,0.68157 0.8615,1.36224 1.2563,2.02986 0.3948,0.66758 0.7516,1.32192 1.0278,1.9513 0.2761,0.62937 0.4712,1.23355 0.5442,1.8004 0.036,0.28344 0.042,0.55789 0.011,0.82114 -0.031,0.26325 -0.097,0.51548 -0.2051,0.75551 -0.2468,0.54861 -0.5807,1.03553 -0.9896,1.46606 -0.4089,0.43054 -0.8929,0.80447 -1.4403,1.1281 -0.5473,0.32363 -1.1578,0.59686 -1.82,0.82475 -0.6622,0.22791 -1.3763,0.41063 -2.1296,0.55398 -0.7533,0.14334 -1.546,0.24729 -2.3668,0.31729 -0.8207,0.07 -1.6691,0.10569 -2.5337,0.11369 -1.729,0.0155 -3.5218,-0.0822 -5.2839,-0.24857 -1.762,-0.16636 -3.4933,-0.40159 -5.0989,-0.66042 -1.6056,-0.25883 -3.0856,-0.54164 -4.3455,-0.80357 -2.5196,-0.52385 -4.1584,-0.96428 -4.1584,-0.96428 0,0 0.6543,0.3901 1.7973,0.9741 1.1431,0.584 2.7749,1.36211 4.73,2.13785 0.9776,0.38788 2.0358,0.77513 3.1543,1.1374 1.1186,0.36228 2.2974,0.69938 3.5156,0.98702 1.2181,0.28764 2.4758,0.52591 3.7522,0.68988 1.2764,0.16395 2.5716,0.25395 3.8649,0.24495 0.9973,-0.007 2.0614,-0.0606 3.176,-0.1509 1.1146,-0.0903 2.2795,-0.21678 3.4778,-0.36897 2.3966,-0.30437 4.9271,-0.7109 7.4569,-1.13274 2.5299,-0.42186 5.0591,-0.85936 7.4533,-1.22525 2.3943,-0.36589 4.6536,-0.66038 6.6435,-0.79685 2.3643,-0.16216 4.8255,-0.25151 7.3365,-0.28061 2.5112,-0.0291 5.0726,0.002 7.6373,0.0806 2.5648,0.0784 5.1331,0.20439 7.6579,0.36483 2.525,0.16046 5.0068,0.35514 7.3986,0.57206 4.7834,0.43384 9.2076,0.95543 12.8984,1.46193 3.6908,0.5065 6.6485,0.99815 8.4997,1.37304 1.0513,-0.36538 2.0695,-0.79093 3.0479,-1.26917 0.9784,-0.47824 1.9172,-1.00892 2.8091,-1.58595 0.892,-0.57703 1.7371,-1.20018 2.5291,-1.8619 0.792,-0.66174 1.5311,-1.36209 2.2097,-2.09445 0.6785,-0.73236 1.2969,-1.49675 1.8484,-2.28565 0.5516,-0.78889 1.036,-1.60259 1.447,-2.43396 0.411,-0.83135 0.7482,-1.68067 1.0051,-2.54041 0.2569,-0.85975 0.4339,-1.72992 0.5229,-2.60398 -2.9482,0.34149 -8.3493,1.08818 -14.8461,1.91823 -3.2483,0.41504 -6.7708,0.85122 -10.3973,1.26763 -3.6265,0.41639 -7.3573,0.81305 -11.0226,1.15031 -3.6653,0.33727 -7.2649,0.61511 -10.6298,0.79272 -3.3649,0.17765 -6.495,0.25535 -9.2201,0.19275 -1.3625,-0.0313 -2.6236,-0.0977 -3.7626,-0.20412 -1.1389,-0.10642 -2.1557,-0.25331 -3.0287,-0.44493 -0.873,-0.19163 -1.6022,-0.42835 -2.1668,-0.7152 -0.2823,-0.14345 -0.5237,-0.29904 -0.7209,-0.46819 -0.1972,-0.16915 -0.3504,-0.35166 -0.4573,-0.54777 -0.1066,-0.19611 -0.1626,-0.39318 -0.1726,-0.59067 -0.01,-0.19747 0.029,-0.39537 0.1121,-0.59376 0.083,-0.19838 0.21,-0.39703 0.3783,-0.59583 0.1683,-0.19879 0.3779,-0.39762 0.6258,-0.59634 0.4957,-0.39744 1.1445,-0.79432 1.9218,-1.18856 0.7774,-0.39424 1.6832,-0.78589 2.6934,-1.17306 1.0102,-0.38715 2.1244,-0.76997 3.3187,-1.14618 1.1941,-0.37621 2.4681,-0.74607 3.7977,-1.10742 2.6589,-0.72277 5.5399,-1.41187 8.4475,-2.05208 2.9076,-0.64019 5.8423,-1.23138 8.6083,-1.75803 2.7658,-0.52665 5.3633,-0.98888 7.5974,-1.37097 4.4683,-0.7642 7.4828,-1.2082 7.4828,-1.2082 -0.534,-0.067 -2.1491,-0.26057 -4.5496,-0.51056 -2.4005,-0.24999 -5.5865,-0.55633 -9.2625,-0.84956 -3.6759,-0.29323 -7.8422,-0.57325 -12.2024,-0.76998 -2.1801,-0.0984 -4.4088,-0.17576 -6.6492,-0.22376 -2.2403,-0.048 -4.4922,-0.0667 -6.7189,-0.047 z m -150.1123,10.67687 v 70.41431 c -15.7553,0.10159 -28.7528,0.38487 -38.0876,1.05006 -2.5153,0.17924 -7.5325,-0.58229 -9.2816,-3.99355 -8.6876,-16.94308 -14.8993,-34.02576 -19.1074,-54.91861 -1.5243,-7.56841 2.3108,-9.12145 9.9953,-9.75806 16.1952,-1.34167 32.6008,-2.50773 56.4813,-2.79415 z m 74.6833,3.30574 c -0.7865,-9e-5 -1.5591,0.33197 -2.2402,0.96273 -0.681,0.63072 -1.2465,1.5379 -1.6397,2.63034 -0.3931,1.09243 -0.6,2.33166 -0.5999,3.59306 -10e-5,1.26139 0.2068,2.5006 0.5999,3.59306 0.3932,1.09244 0.9587,1.99961 1.6397,2.63033 0.6811,0.63079 1.4537,0.96283 2.2402,0.96273 0.6073,-0.002 1.2081,-0.20172 1.7658,-0.58756 0.5575,-0.3857 1.0603,-0.94919 1.4779,-1.65623 v 0.13074 c 0.5796,-0.39945 1.362,-0.74907 2.3099,-1.05781 0.9478,-0.30875 2.0611,-0.57647 3.3017,-0.81236 1.2405,-0.23588 2.6087,-0.43975 4.0664,-0.62063 1.4577,-0.18088 3.0049,-0.33893 4.6043,-0.48266 3.1986,-0.28746 6.605,-0.51835 9.9168,-0.76429 3.3114,-0.24595 6.5288,-0.507 9.3493,-0.85421 -2.888,-0.26943 -6.1145,-0.50468 -9.4083,-0.7674 -3.2937,-0.26272 -6.6546,-0.55293 -9.8118,-0.93173 -1.5785,-0.18939 -3.1062,-0.40089 -4.549,-0.64233 -1.4428,-0.24144 -2.8009,-0.51283 -4.0401,-0.82166 -1.2392,-0.30883 -2.3597,-0.6554 -3.3275,-1.04696 -0.4837,-0.19579 -0.9298,-0.40284 -1.3332,-0.62219 -0.4034,-0.21934 -0.7641,-0.45074 -1.0785,-0.69556 v 0.0904 c -0.4183,-0.70462 -0.9215,-1.26562 -1.479,-1.64899 -0.5576,-0.38332 -1.158,-0.58093 -1.7647,-0.58085 z m -151.4952,0.79324 c 0.3292,-0.009 0.6412,-0.005 0.938,0.0129 3.957,0.24396 5.1712,3.09362 7.3277,13.11082 3.4363,15.96218 9.6198,32.15364 17.2806,48.46785 0.9039,1.92495 2.4457,5.52286 -3.4484,6.0358 l -27.5952,2.40141 c -9.274,0.80707 -11.8392,-3.0938 -14.0219,-5.14284 -16.0071,-14.52233 -27.4568,-31.51539 -36.1797,-51.14468 -1.5123,-3.40312 1.2002,-5.88892 7.0879,-6.74119 l 38.6685,-5.59708 c 4.5016,-0.65162 7.6382,-1.33931 9.9425,-1.40301 z m 194.7809,0.46767 c -1.1121,-6e-5 -2.2046,0.20686 -3.1678,0.59996 -0.963,0.3932 -1.7627,0.95874 -2.3187,1.63969 -0.5561,0.68093 -0.8489,1.45336 -0.849,2.23966 -10e-5,0.78626 0.2926,1.5587 0.8485,2.23966 0.556,0.68121 1.3559,1.24692 2.3192,1.64021 0.9632,0.3931 2.0557,0.60002 3.1678,0.59996 0.4744,6e-5 0.9473,-0.0376 1.4097,-0.11214 0.4625,-0.0748 0.9116,-0.18608 1.339,-0.33176 0.4275,-0.14556 0.8305,-0.32463 1.2015,-0.53382 0.3708,-0.20904 0.7072,-0.44687 1.003,-0.709 0.2957,-0.26232 0.5488,-0.54729 0.7545,-0.84956 0.2058,-0.30217 0.3631,-0.61973 0.4687,-0.94671 0.012,-0.0362 0.023,-0.0726 0.033,-0.10904 0.01,-0.0366 0.02,-0.0733 0.029,-0.11007 0.01,-0.0366 0.017,-0.0733 0.025,-0.11007 0.01,-0.0368 0.015,-0.0737 0.022,-0.11059 0.01,-0.037 0.012,-0.074 0.018,-0.1111 0.01,-0.037 0.01,-0.074 0.013,-0.11111 0,-0.0372 0.01,-0.0744 0.01,-0.11162 0,-0.0372 4e-4,-0.0744 0.01,-0.11162 v -0.11162 c -10e-5,-0.7863 -0.293,-1.55873 -0.8491,-2.23966 -0.556,-0.68095 -1.3557,-1.24649 -2.3187,-1.63969 -0.963,-0.39304 -2.0553,-0.59996 -3.1672,-0.59996 z m -262.0145,10.39626 c 4.8361,-0.10623 7.8318,3.00148 8.8129,6.66316 1.4448,5.39191 25.5408,41.4045 33.8047,47.10927 7.9365,5.98544 3.6362,7.78644 -1.1168,8.36176 -3.3846,0.40972 -15.052,2.359 -26.1787,4.3987 -1.0283,-0.52714 -2.0778,-1.03169 -3.0944,-1.57096 -2.6158,-1.38762 -5.1927,-2.81531 -7.7277,-4.28191 -2.535,-1.46661 -5.0282,-2.97212 -7.4771,-4.516 -2.4488,-1.5439 -4.8534,-3.12596 -7.2109,-4.74545 -2.3575,-1.61949 -4.6684,-3.27634 -6.9293,-4.96972 -2.2609,-1.69337 -4.4721,-3.42329 -6.6311,-5.18883 -2.159,-1.76555 -4.2657,-3.56725 -6.3175,-5.40329 -2.0519,-1.83604 -4.0492,-3.70673 -5.9887,-5.61155 -1.9394,-1.90472 -3.8214,-3.84335 -5.6431,-5.81514 -10e-5,-1e-4 10e-5,-4.3e-4 0,-5.2e-4 -1.8217,-1.9718 -3.5834,-3.97643 -5.2824,-6.01359 -10e-5,-1e-4 10e-5,-4.1e-4 0,-5.1e-4 -1.4391,-1.72571 -2.8083,-3.48707 -4.1558,-5.2586 19.4403,-5.98748 43.1677,-11.66041 48.887,-12.87983 0.8108,-0.17287 1.5581,-0.26179 2.2489,-0.27699 z m 144.0455,56.85648 v 27.91664 5.2e-4 c 0,0.67471 -0.05,1.31422 -0.1478,1.9203 0,1.6e-4 0,3.5e-4 0,5.1e-4 -0.098,0.60605 -0.2424,1.17843 -0.431,1.71876 0,1.5e-4 10e-5,3.6e-4 0,5.2e-4 -0.1886,0.54031 -0.4215,1.04851 -0.6945,1.526 -1e-4,1.4e-4 10e-5,3.9e-4 0,5.2e-4 -0.2731,0.47749 -0.5865,0.92394 -0.9374,1.34152 -0.5677,0.67547 -1.295,1.22356 -2.0438,1.75235 -18.9668,-8.55988 -28.6191,-20.56117 -34.4475,-28.4763 -4.1052,-5.57469 -1.0609,-6.3641 5.0947,-6.69365 11.6508,-0.62376 18.7998,-0.90318 33.6073,-1.00769 z m -52.8857,2.23397 c 6.392,0.10988 7.8718,2.40195 8.6434,3.17345 0.8817,0.88173 19.9558,24.63266 33.5494,31.51281 -17.7437,-2.4133 -44.0695,-8.92489 -70.9259,-28.25719 -3.2843,-2.36418 -5.0965,-3.45009 3.1822,-4.2907 7.4839,-0.86844 14.9873,-1.47978 22.4984,-2.04122 1.1259,-0.0841 2.1394,-0.1129 3.0525,-0.0971 z m -41.6088,5.23431 c 2.8272,0.0559 5.4161,0.77911 7.9432,2.59364 23.4101,16.8093 45.7343,24.38432 70.1947,29.52068 -1.4021,0.0742 -2.8373,0.096 -4.2938,0.0548 -1.5379,-0.0435 -3.094,-0.14606 -4.6416,-0.29558 -6.3521,-0.61371 -12.6741,-1.42801 -18.9446,-2.43603 -6.2705,-1.00803 -12.4897,-2.21004 -18.6366,-3.59875 -6.1468,-1.38871 -12.2218,-2.96437 -18.203,-4.72012 -5.9811,-1.75577 -11.8689,-3.69149 -17.6423,-5.80068 -2.8867,-1.0546 -5.7447,-2.15242 -8.5716,-3.29283 -2.8269,-1.14039 -5.6227,-2.32359 -8.3845,-3.5481 -2.7618,-1.22452 -5.4894,-2.49079 -8.1809,-3.7977 -0.3373,-0.16378 -0.6617,-0.34137 -0.9979,-0.50643 8.3157,-1.43493 16.1884,-2.89812 24.9742,-3.64422 1.9062,-0.35528 3.6884,-0.56225 5.3847,-0.52865 z" /></g></svg>
